<svg xmlns="http://www.w3.org/2000/svg" width="50.378" height="50" viewBox="0 0 50.378 50">
  <g id="Group_431" data-name="Group 431" transform="translate(-806 -774.001)">
    <path id="Path_1918" data-name="Path 1918" d="M14.55,9.09l18.493,3.673a3.1,3.1,0,0,1,2.5,3.065V37.239a3.144,3.144,0,0,1-3.149,3.149H13.5a1.039,1.039,0,0,0,1.05-1.05v-1.05H32.392a1.053,1.053,0,0,0,1.05-1.05V15.828a1.055,1.055,0,0,0-.819-1.029L14.55,11.231Z" transform="translate(820.838 783.613)" fill="#25f"/>
    <path id="Path_1919" data-name="Path 1919" d="M22.248,14a1.05,1.05,0,1,1,0,2.1h-4.2a1.05,1.05,0,0,1,0-2.1Z" transform="translate(824.684 789.01)" fill="#25f"/>
    <path id="Path_1925" data-name="Path 1925" d="M22.248,17a1.05,1.05,0,1,1,0,2.1h-4.2a1.05,1.05,0,0,1,0-2.1Z" transform="translate(824.684 792.307)" fill="#25f"/>
    <path id="Path_1926" data-name="Path 1926" d="M22.248,20a1.05,1.05,0,1,1,0,2.1h-4.2a1.05,1.05,0,0,1,0-2.1Z" transform="translate(824.684 795.604)" fill="#25f"/>
    <path id="Path_1920" data-name="Path 1920" d="M15.1,39.437a1.05,1.05,0,0,1-2.1,0V10.049a1.116,1.116,0,0,1,.378-.819,1.1,1.1,0,0,1,.882-.21l.84.168V39.437Z" transform="translate(820.289 783.514)" fill="#25f"/>
    <path id="Path_1927" data-name="Path 1927" d="M16.847,23v1.05A1.039,1.039,0,0,0,17.9,25.1H9.5a1.039,1.039,0,0,0,1.05-1.05V23Z" transform="translate(816.441 798.9)" fill="#25f"/>
    <path id="Path_1912" data-name="Path 1912" d="M13.248,5a1.05,1.05,0,0,1,0,2.1H9.05a1.05,1.05,0,1,1,0-2.1Z" transform="translate(814.793 779.117)" fill="#25f"/>
    <path id="Path_1913" data-name="Path 1913" d="M14.3,9.05a1.039,1.039,0,0,1-1.05,1.05H9.05a1.05,1.05,0,1,1,0-2.1h4.2A1.039,1.039,0,0,1,14.3,9.05Z" transform="translate(814.793 782.414)" fill="#25f"/>
    <path id="Path_1921" data-name="Path 1921" d="M13.248,11a1.05,1.05,0,0,1,0,2.1H9.05a1.05,1.05,0,1,1,0-2.1Z" transform="translate(814.793 785.711)" fill="#25f"/>
    <path id="Path_1922" data-name="Path 1922" d="M13.248,14a1.05,1.05,0,0,1,0,2.1H9.05a1.05,1.05,0,1,1,0-2.1Z" transform="translate(814.793 789.01)" fill="#25f"/>
    <path id="Path_1923" data-name="Path 1923" d="M9.3,15.05a1.039,1.039,0,0,1-1.05,1.05H4.05a1.05,1.05,0,1,1,0-2.1h4.2A1.039,1.039,0,0,1,9.3,15.05Z" transform="translate(809.297 789.01)" fill="#25f"/>
    <path id="Path_1914" data-name="Path 1914" d="M8.248,5a1.05,1.05,0,1,1,0,2.1H4.05a1.05,1.05,0,0,1,0-2.1Z" transform="translate(809.297 779.117)" fill="#25f"/>
    <path id="Path_1915" data-name="Path 1915" d="M8.248,8a1.05,1.05,0,1,1,0,2.1H4.05a1.05,1.05,0,0,1,0-2.1Z" transform="translate(809.297 782.414)" fill="#25f"/>
    <path id="Path_1924" data-name="Path 1924" d="M8.248,11a1.05,1.05,0,0,1,0,2.1H4.05a1.05,1.05,0,0,1,0-2.1Z" transform="translate(809.297 785.711)" fill="#25f"/>
    <path id="Path_1928" data-name="Path 1928" d="M14.5,20.149a1.053,1.053,0,0,0-1.05-1.05h-6.3a1.039,1.039,0,0,0-1.05,1.05v9.446H4V20.149A3.144,3.144,0,0,1,7.149,17h6.3a3.144,3.144,0,0,1,3.149,3.149v9.446H14.5Z" transform="translate(810.396 792.307)" fill="#25f"/>
    <path id="Path_1929" data-name="Path 1929" d="M6.1,23h10.5v1.05a1.039,1.039,0,0,1-1.05,1.05H5.05A1.039,1.039,0,0,1,4,24.05V23Z" transform="translate(810.396 798.9)" fill="#25f"/>
    <path id="Path_1916" data-name="Path 1916" d="M3.673.221,26.742,3.727a3.137,3.137,0,0,1,2.645,3.107V18.882l-.84-.168a1.1,1.1,0,0,0-.882.21,1.116,1.116,0,0,0-.378.819V6.834a1.061,1.061,0,0,0-.882-1.05L3.338,2.3a.581.581,0,0,0-.189-.021.99.99,0,0,0-.672.252,1,1,0,0,0-.378.8v43.7a1.053,1.053,0,0,0,1.05,1.05H8.4v1.05a1.039,1.039,0,0,0,1.05,1.05h-6.3A3.144,3.144,0,0,1,0,47.031V3.328A3.091,3.091,0,0,1,1.113.935,3.151,3.151,0,0,1,3.673.221Z" transform="translate(806 773.82)" fill="#25f"/>
  </g>
</svg>
