<svg xmlns="http://www.w3.org/2000/svg" width="43.355" height="37.999" viewBox="0 0 43.355 37.999">
  <g id="Group_277" data-name="Group 277" transform="translate(-873 -715)">
    <g id="gallery_1_" data-name="gallery (1)" transform="translate(873 715)" opacity="0.1">
      <g id="Group_276" data-name="Group 276" transform="translate(0 0)">
        <g id="Group_275" data-name="Group 275" transform="translate(0 0)">
          <path id="Path_1668" data-name="Path 1668" d="M178.411,159.668a4.422,4.422,0,1,0,4.422,4.422A4.422,4.422,0,0,0,178.411,159.668Zm0,6.739a2.317,2.317,0,0,1,0-4.633h0a2.317,2.317,0,1,1,0,4.633Z" transform="translate(-156.456 -146.256)" fill="#25f"/>
          <path id="Path_1669" data-name="Path 1669" d="M39.593,29.879,10.847,26.615a3.948,3.948,0,0,0-3.106.9,4,4,0,0,0-1.527,2.738l-.526,4.317H4.055A4.231,4.231,0,0,0,0,38.935V60.468A4,4,0,0,0,3.9,64.573q.08,0,.16,0h28.9a4.322,4.322,0,0,0,4.422-4.107v-.842a5.265,5.265,0,0,0,2-.842,4.37,4.37,0,0,0,1.527-2.843l2.422-21.375A4.265,4.265,0,0,0,39.593,29.879Z" transform="translate(0 -26.576)" fill="#25f"/>
        </g>
      </g>
    </g>
    <g id="gallery_1_2" data-name="gallery (1)" transform="translate(873 715)">
      <g id="Group_276-2" data-name="Group 276" transform="translate(0 0)">
        <g id="Group_275-2" data-name="Group 275" transform="translate(0 0)">
          <path id="Path_1668-2" data-name="Path 1668" d="M178.411,159.668a4.422,4.422,0,1,0,4.422,4.422A4.422,4.422,0,0,0,178.411,159.668Zm0,6.739a2.317,2.317,0,0,1,0-4.633h0a2.317,2.317,0,1,1,0,4.633Z" transform="translate(-156.456 -146.256)" fill="#25f"/>
          <path id="Path_1669-2" data-name="Path 1669" d="M39.593,29.879,10.847,26.615a3.948,3.948,0,0,0-3.106.9,4,4,0,0,0-1.527,2.738l-.526,4.317H4.055A4.231,4.231,0,0,0,0,38.935V60.468A4,4,0,0,0,3.9,64.573q.08,0,.16,0h28.9a4.322,4.322,0,0,0,4.422-4.107v-.842a5.265,5.265,0,0,0,2-.842,4.37,4.37,0,0,0,1.527-2.843l2.422-21.375A4.265,4.265,0,0,0,39.593,29.879ZM35.275,60.468a2.217,2.217,0,0,1-2.317,2H4.055a1.9,1.9,0,0,1-1.95-1.839q0-.081,0-.162v-3.9l8.16-6a2.527,2.527,0,0,1,3.264.158l5.739,5.054a4.949,4.949,0,0,0,3.106,1.158,4.791,4.791,0,0,0,2.527-.684l10.372-6V60.468Zm0-12.688L23.8,54.466a2.685,2.685,0,0,1-3.106-.263L14.9,49.1a4.686,4.686,0,0,0-5.844-.211L2.107,53.939v-15a2.125,2.125,0,0,1,1.948-2.264h28.9a2.422,2.422,0,0,1,2.317,2.264v8.845Zm5.951-13.5c0,.007,0,.014,0,.021L38.75,55.677a1.79,1.79,0,0,1-.684,1.421c-.211.211-.684.316-.684.421V38.935a4.528,4.528,0,0,0-4.422-4.37H7.793l.474-4.107a2.422,2.422,0,0,1,.79-1.369,2.422,2.422,0,0,1,1.579-.421l28.693,3.317A2.106,2.106,0,0,1,41.227,34.281Z" transform="translate(0 -26.576)" fill="#25f"/>
        </g>
      </g>
    </g>
  </g>
</svg>
