<svg xmlns="http://www.w3.org/2000/svg" width="30" height="30" viewBox="0 0 30 30">
  <g id="Group_662" data-name="Group 662" transform="translate(-517 -136)">
    <circle id="Ellipse_329" data-name="Ellipse 329" cx="15" cy="15" r="15" transform="translate(517 136)" fill="#fff"/>
    <path id="Path_1290" data-name="Path 1290" d="M2.755,2.471a1.9,1.9,0,1,0,1.9,1.9A1.907,1.907,0,0,0,2.755,2.471Z" transform="translate(542.471 148.15) rotate(90)" fill="#b7bbd8"/>
    <path id="Path_1291" data-name="Path 1291" d="M1.9,109.758a1.9,1.9,0,1,0-1.9-1.9A1.907,1.907,0,0,0,1.9,109.758Z" transform="translate(639.846 149) rotate(90)" fill="#b7bbd8"/>
    <path id="Path_1292" data-name="Path 1292" d="M2.644,209.108a1.9,1.9,0,1,0,1.9,1.9A1.907,1.907,0,0,0,2.644,209.108Z" transform="translate(736.921 148.261) rotate(90)" fill="#b7bbd8"/>
  </g>
</svg>
