<svg xmlns="http://www.w3.org/2000/svg" width="15.85" height="15.877" viewBox="0 0 15.85 15.877">
  <path id="Icon_feather-phone-call" data-name="Icon feather-phone-call" d="M11.811,4.172A3.34,3.34,0,0,1,14.45,6.811M11.811,1.5a6.013,6.013,0,0,1,5.311,5.3m-.668,5.331v2A1.336,1.336,0,0,1,15,15.476a13.221,13.221,0,0,1-5.765-2.051A13.028,13.028,0,0,1,5.224,9.417,13.221,13.221,0,0,1,3.173,3.624,1.336,1.336,0,0,1,4.5,2.168h2A1.336,1.336,0,0,1,7.843,3.317a8.578,8.578,0,0,0,.468,1.877,1.336,1.336,0,0,1-.3,1.41l-.848.848a10.689,10.689,0,0,0,4.008,4.008l.848-.848a1.336,1.336,0,0,1,1.41-.3,8.578,8.578,0,0,0,1.877.468A1.336,1.336,0,0,1,16.455,12.136Z" transform="translate(-2.268 -0.506)" fill="none" stroke="#2dca73" stroke-linecap="round" stroke-linejoin="round" stroke-width="1.8"/>
</svg>
