<svg xmlns="http://www.w3.org/2000/svg" width="36" height="36" viewBox="0 0 36 36">
  <g id="Group_575" data-name="Group 575" transform="translate(-358 -451)">
    <g id="Group_568" data-name="Group 568">
      <rect id="Rectangle_861" data-name="Rectangle 861" width="36" height="36" rx="18" transform="translate(358 451)" fill="#e8edff"/>
      <path id="Icon_feather-phone-call" data-name="Icon feather-phone-call" d="M12.483,4.38a3.6,3.6,0,0,1,2.844,2.844M12.483,1.5a6.48,6.48,0,0,1,5.724,5.717m-.72,5.745v2.16a1.44,1.44,0,0,1-1.57,1.44A14.248,14.248,0,0,1,9.7,14.351a14.039,14.039,0,0,1-4.32-4.32,14.248,14.248,0,0,1-2.21-6.242A1.44,1.44,0,0,1,4.606,2.22h2.16a1.44,1.44,0,0,1,1.44,1.238,9.244,9.244,0,0,0,.5,2.023A1.44,1.44,0,0,1,8.386,7l-.914.914a11.519,11.519,0,0,0,4.32,4.32l.914-.914A1.44,1.44,0,0,1,14.225,11a9.244,9.244,0,0,0,2.023.5A1.44,1.44,0,0,1,17.486,12.962Z" transform="translate(365.313 459.967)" fill="none" stroke="#25f" stroke-linecap="round" stroke-linejoin="round" stroke-width="1.6"/>
    </g>
  </g>
</svg>
