<svg xmlns="http://www.w3.org/2000/svg" width="8" height="12" viewBox="0 0 8 12">
  <g id="Group_749" data-name="Group 749" transform="translate(10939 -3862)">
    <path id="Polygon_5" data-name="Polygon 5" d="M3.219.976a1,1,0,0,1,1.562,0L6.7,3.375A1,1,0,0,1,5.919,5H2.081A1,1,0,0,1,1.3,3.375Z" transform="translate(-10931 3874) rotate(180)" fill="#b7bbd8"/>
    <path id="Polygon_6" data-name="Polygon 6" d="M3.219.976a1,1,0,0,1,1.562,0L6.7,3.375A1,1,0,0,1,5.919,5H2.081A1,1,0,0,1,1.3,3.375Z" transform="translate(-10939 3862)" fill="#b7bbd8"/>
  </g>
</svg>
