<svg width="929" height="339" xmlns="http://www.w3.org/2000/svg" xmlns:xlink="http://www.w3.org/1999/xlink" xmlns:svgjs="http://svgjs.com/svgjs" viewBox="980 139 929 339"><svg width="197" height="128" xmlns="http://www.w3.org/2000/svg" xmlns:xlink="http://www.w3.org/1999/xlink" xmlns:svgjs="http://svgjs.com/svgjs" viewBox="0.214 0 196.571 128" fill="#272b47" x="1071" y="139"><svg xmlns="http://www.w3.org/2000/svg" xmlns:xlink="http://www.w3.org/1999/xlink" width="197" height="128" viewBox="0.776 0.216 195.741 127.459"><path paint-order="stroke fill markers" fill-rule="evenodd" d="M99.85 118.019c7.216 3.989 14.952 7.661 23.315 9.063 12.296 2.06 25.166-1.354 32.606-8.652 6.291-6.187 8.577-14.452 12.26-21.976 4.54-9.269 11.35-17.579 18.457-25.618 3.818-4.318 7.813-8.708 9.353-13.97 2.13-7.305-.93-15.617-7.068-21.984-6.137-6.366-15.076-10.86-24.456-13.327-4.991-1.311-10.324-2.084-15.179-1.138-5.133.993-9.298 3.828-14.447 4.796-4.772.896-9.98.118-14.899-1.106a82.547 82.547 0 0 1-18.355-6.944c-6.525-3.42-12.381-7.653-18.885-11.099C76.05 2.618 68.553-.073 61.142.241c-6.958.293-12.993 3.178-18.52 6.215a184.765 184.765 0 0 0-25.37 16.752C11.985 27.36 6.96 31.848 3.908 37.302c-5.83 10.43-3.373 24 6.122 33.808 7.866 8.129 19.564 13.317 31.223 17.353 10.63 3.697 23.251 6.312 32.524 12.268 8.842 5.69 16.649 12.08 26.071 17.288z"/></svg></svg><svg width="929" height="332" xmlns="http://www.w3.org/2000/svg" xmlns:xlink="http://www.w3.org/1999/xlink" xmlns:svgjs="http://svgjs.com/svgjs" viewBox="0.244 0 928.512 332" fill="#272b47" x="980" y="146"><svg xmlns="http://www.w3.org/2000/svg" xmlns:xlink="http://www.w3.org/1999/xlink" width="929" height="332" viewBox="0.667 0.183 928 331.817"><path paint-order="stroke fill markers" fill-rule="evenodd" d="M760 18c-6.667-2.667-99.167-29.334-173.333-12-74.167 17.333-90.5 33.667-123.334 81.333-32.833 47.667 26.834 78-8 109.333C420.5 228 350 193.333 324 212.666 298 232 312 266 271.333 276c-40.666 10-70.666-8.667-142.666-11.334s-128 46.667-128 46.667L510 328l377.333 4 41.334-4-11.334-302L760 18z"/></svg></svg><svg width="29" height="29" xmlns="http://www.w3.org/2000/svg" xmlns:xlink="http://www.w3.org/1999/xlink" xmlns:svgjs="http://svgjs.com/svgjs" fill="#272b47" x="1204" y="362"><svg xmlns="http://www.w3.org/2000/svg" xmlns:xlink="http://www.w3.org/1999/xlink" width="29" height="29" viewBox="0 0 28 28"><path paint-order="stroke fill markers" fill-rule="evenodd" d="M14 28C6.258 28 0 21.742 0 14S6.258 0 14 0s14 6.258 14 14-6.258 14-14 14z"/></svg></svg><svg width="18" height="17" xmlns="http://www.w3.org/2000/svg" xmlns:xlink="http://www.w3.org/1999/xlink" xmlns:svgjs="http://svgjs.com/svgjs" viewBox="0.5 0 17 17" fill="#272b47" x="1148" y="290"><svg xmlns="http://www.w3.org/2000/svg" xmlns:xlink="http://www.w3.org/1999/xlink" width="18" height="17" viewBox="0.75 0.5 16.5 16.5"><path paint-order="stroke fill markers" fill-rule="evenodd" d="M9 17A8.243 8.243 0 0 1 .75 8.75 8.243 8.243 0 0 1 9 .5a8.242 8.242 0 0 1 8.25 8.25A8.242 8.242 0 0 1 9 17z"/></svg></svg><svg width="18" height="17" xmlns="http://www.w3.org/2000/svg" xmlns:xlink="http://www.w3.org/1999/xlink" xmlns:svgjs="http://svgjs.com/svgjs" viewBox="0.5 0 17 17" fill="#272b47" x="1015" y="331"><svg xmlns="http://www.w3.org/2000/svg" width="18" height="17" viewBox="0.75 0.5 16.5 16.5"><path paint-order="stroke fill markers" fill-rule="evenodd" d="M9 17A8.243 8.243 0 0 1 .75 8.75 8.243 8.243 0 0 1 9 .5a8.242 8.242 0 0 1 8.25 8.25A8.242 8.242 0 0 1 9 17z"/></svg></svg></svg>