<svg xmlns="http://www.w3.org/2000/svg" xmlns:xlink="http://www.w3.org/1999/xlink" width="714" height="325" viewBox="0 0 714 325">
  <defs>
    <clipPath id="clip-path">
      <path id="Rectangle_479" data-name="Rectangle 479" d="M0,0H714a0,0,0,0,1,0,0V315a10,10,0,0,1-10,10H10A10,10,0,0,1,0,315V0A0,0,0,0,1,0,0Z" transform="translate(1082.463 119)" fill="#fff"/>
    </clipPath>
    <linearGradient id="linear-gradient" x1="0.307" y1="1" x2="0.307" gradientUnits="objectBoundingBox">
      <stop offset="0" stop-color="gray" stop-opacity="0.251"/>
      <stop offset="0.54" stop-color="gray" stop-opacity="0.122"/>
      <stop offset="1" stop-color="gray" stop-opacity="0.102"/>
    </linearGradient>
  </defs>
  <g id="Mask_Group_6" data-name="Mask Group 6" transform="translate(-1082.463 -119)" clip-path="url(#clip-path)">
    <g id="Group_263" data-name="Group 263" transform="translate(1216.387 129)">
      <path id="Path_1464" data-name="Path 1464" d="M246.893,389.56l-.169,9.3-1.381,75.41-11.816,27.676-40.726.464V393.841l42.5-3.364Z" transform="translate(-147.101 -201.909)" fill="#5f5d7e"/>
      <path id="Path_1465" data-name="Path 1465" d="M246.893,389.56l-.169,9.3-1.381,75.41-11.816,27.676-40.726.464V393.841l42.5-3.364Z" transform="translate(-147.101 -201.909)" opacity="0.1"/>
      <path id="Path_1466" data-name="Path 1466" d="M283.406,389.56l-.169,9.3-1.381,75.41L270.04,501.947l3.111-102.907-.011-.069-1.323-8.494Z" transform="translate(-183.615 -201.909)" fill="#5f5d7e"/>
      <path id="Path_1467" data-name="Path 1467" d="M235.3,390.477l11.589-.917-.169,9.3-10.1.111-43.827.49v-5.621Z" transform="translate(-147.101 -201.909)" opacity="0.1"/>
      <path id="Path_1468" data-name="Path 1468" d="M947.172,392.1V500.04h-9.48L899.76,472.374V389.055l33.888-3.185,2.077.954,1.967.907Z" transform="translate(-481.304 -200.165)" fill="#5f5d7e"/>
      <rect id="Rectangle_468" data-name="Rectangle 468" width="9.48" height="113.215" transform="translate(456.389 186.659)" opacity="0.1"/>
      <path id="Path_1469" data-name="Path 1469" d="M947.172,386.824v6.206l-9.48.111-37.932.417v-4.5l33.888-3.185,2.077.954,1.967.907v-.907Z" transform="translate(-481.304 -200.165)" opacity="0.1"/>
      <path id="Path_1470" data-name="Path 1470" d="M572,373.058v8.795l-465.869,5.2V375.858l43.832-8.863L531.425,364.2Z" transform="translate(-106.13 -189.921)" fill="#5f5d7e"/>
      <path id="Path_1471" data-name="Path 1471" d="M572,381v8.795l-465.869,5.2V383.8Z" transform="translate(-106.13 -197.863)" opacity="0.1"/>
      <ellipse id="Ellipse_242" data-name="Ellipse 242" cx="21.001" cy="1.345" rx="21.001" ry="1.345" transform="translate(58.385 178.566)" opacity="0.1"/>
      <path id="Path_1472" data-name="Path 1472" d="M305.031,340.319a8.005,8.005,0,0,0-1.055,2c-.063.174-.126.374-.19.564a1.654,1.654,0,0,0-.374-.127,5.168,5.168,0,0,0-1.661-.148q0-.322.032-.68c.069-2.457-.221-5.884-2.568-4.434-2.246,1.4-.643,3.723.807,5.225.127.132.253.253.374.369-1.323.949-1.582,3.137-1.8,5.426s-2.162,4.8-3.448,6.222l-.369.4a4.7,4.7,0,0,0-3.749-.965q-.09-.3-.174-.633c-1.055-3.77-3.211-10.3-5.979-11.737l.364-.459c1.176-1.54,2.5-3.823.527-4.408s-2.109,1.983-2.019,3.9a6.825,6.825,0,0,0,.053.685,2.879,2.879,0,0,0-2.03,1c-.095-.116-.19-.232-.3-.359-1.582-1.872-4.492-4.835-5.373-2.589-.817,2.109,1.74,4.8,3.543,6.369l.111.1c-1.208,4.9,4.065,8.9,6.907,10.645l.364.227c-3.918,4.614-6.327,13.266-6.327,13.266l10.967,1.961s7.271-6.274,6.327-12.169h.074c7.266-1.455,8.921-9.206,7.788-13.8l.132-.053a8.315,8.315,0,0,0,3.364-2.547C311.384,340.736,307.119,337.546,305.031,340.319Z" transform="translate(-208.019 -212.392)" fill="#a273ff"/>
      <path id="Path_1473" data-name="Path 1473" d="M305.031,340.319a8.005,8.005,0,0,0-1.055,2c-.063.174-.126.374-.19.564a1.654,1.654,0,0,0-.374-.127,5.168,5.168,0,0,0-1.661-.148q0-.322.032-.68c.069-2.457-.221-5.884-2.568-4.434-2.246,1.4-.643,3.723.807,5.225.127.132.253.253.374.369-1.323.949-1.582,3.137-1.8,5.426s-2.162,4.8-3.448,6.222l-.369.4a4.7,4.7,0,0,0-3.749-.965q-.09-.3-.174-.633c-1.055-3.77-3.211-10.3-5.979-11.737l.364-.459c1.176-1.54,2.5-3.823.527-4.408s-2.109,1.983-2.019,3.9a6.825,6.825,0,0,0,.053.685,2.879,2.879,0,0,0-2.03,1c-.095-.116-.19-.232-.3-.359-1.582-1.872-4.492-4.835-5.373-2.589-.817,2.109,1.74,4.8,3.543,6.369l.111.1c-1.208,4.9,4.065,8.9,6.907,10.645l.364.227c-3.918,4.614-6.327,13.266-6.327,13.266l10.967,1.961s7.271-6.274,6.327-12.169h.074c7.266-1.455,8.921-9.206,7.788-13.8l.132-.053a8.315,8.315,0,0,0,3.364-2.547C311.384,340.736,307.119,337.546,305.031,340.319Z" transform="translate(-208.019 -212.392)" opacity="0.1"/>
      <path id="Path_1474" data-name="Path 1474" d="M283.791,345.2l-1.281,3.754s-.712-.5-1.614-1.3c-1.8-1.582-4.36-4.281-3.538-6.369.881-2.246,3.786.717,5.373,2.589C283.369,344.625,283.791,345.2,283.791,345.2Z" transform="translate(-208.613 -214.109)" fill="#a273ff"/>
      <path id="Path_1475" data-name="Path 1475" d="M293.486,341.345a18.455,18.455,0,0,1-1.25,1.471,19.493,19.493,0,0,1-.227-1.977c-.106-1.919.095-4.471,2.019-3.9S294.662,339.806,293.486,341.345Z" transform="translate(-215.603 -212.396)" fill="#a273ff"/>
      <path id="Path_1476" data-name="Path 1476" d="M322.914,342.2c-.037,1.234-.158,2.22-.158,2.22A15.075,15.075,0,0,1,321.174,343c-1.45-1.5-3.058-3.828-.807-5.225C322.693,336.32,322.983,339.747,322.914,342.2Z" transform="translate(-228.491 -212.664)" fill="#a273ff"/>
      <path id="Path_1477" data-name="Path 1477" d="M335.186,345.709a8.314,8.314,0,0,1-3.364,2.547,9.633,9.633,0,0,1-1.128.406l-1.513-2.109a15.89,15.89,0,0,1,.627-2.062,8,8,0,0,1,1.055-2C332.955,339.7,337.221,342.893,335.186,345.709Z" transform="translate(-233.186 -214.55)" fill="#a273ff"/>
      <path id="Path_1478" data-name="Path 1478" d="M286.04,346.92c.638.749,1.055,1.323,1.055,1.323L285.813,352s-.712-.5-1.613-1.3a7.312,7.312,0,0,1,1.445-3.3C285.777,347.231,285.908,347.068,286.04,346.92Z" transform="translate(-211.922 -217.153)" opacity="0.1"/>
      <path id="Path_1479" data-name="Path 1479" d="M293.506,344.916a18.475,18.475,0,0,1-1.25,1.471,19.507,19.507,0,0,1-.227-1.977A2.574,2.574,0,0,1,293.506,344.916Z" transform="translate(-215.623 -215.966)" opacity="0.1"/>
      <path id="Path_1480" data-name="Path 1480" d="M296.057,360.42l-3.19,1.4a18.943,18.943,0,0,1-1.7-.96c-3.353-2.062-10.092-7.25-5.573-13.372s8.289,4.856,9.77,10.224C295.814,359.319,296.057,360.42,296.057,360.42Z" transform="translate(-211.867 -216.57)" fill="#a273ff"/>
      <path id="Path_1481" data-name="Path 1481" d="M322.87,347.291a2.6,2.6,0,0,1,1.756-.791c-.037,1.234-.158,2.22-.158,2.22A15.072,15.072,0,0,1,322.87,347.291Z" transform="translate(-230.202 -216.955)" opacity="0.1"/>
      <path id="Path_1482" data-name="Path 1482" d="M331.822,351.015a9.639,9.639,0,0,1-1.128.406l-1.513-2.109a15.893,15.893,0,0,1,.627-2.062C330.783,347.809,331.5,349.227,331.822,351.015Z" transform="translate(-233.186 -217.309)" opacity="0.1"/>
      <path id="Path_1483" data-name="Path 1483" d="M313.431,365.1q-.263.053-.527.095c-10.688,1.629-3.522-4.144-3.522-4.144s.48-.443,1.134-1.165c1.287-1.424,3.232-3.918,3.454-6.222.332-3.464.722-6.712,4.814-5.758S323.555,363.078,313.431,365.1Z" transform="translate(-222.715 -217.54)" fill="#a273ff"/>
      <rect id="Rectangle_469" data-name="Rectangle 469" width="20.432" height="5.373" transform="translate(70.09 174.184)" fill="#474157"/>
      <rect id="Rectangle_470" data-name="Rectangle 470" width="26.696" height="18.75" transform="translate(66.842 156.726)" fill="#474157"/>
      <rect id="Rectangle_471" data-name="Rectangle 471" width="20.432" height="5.373" transform="translate(69.89 174.184)" opacity="0.1"/>
      <rect id="Rectangle_472" data-name="Rectangle 472" width="26.696" height="18.75" transform="translate(66.757 156.726)" opacity="0.1"/>
      <rect id="Rectangle_473" data-name="Rectangle 473" width="20.432" height="5.373" transform="translate(71.434 174.184)" fill="#474157"/>
      <path id="Path_1484" data-name="Path 1484" d="M301.717,368.5c.448,1.582.691,2.7.691,2.7l-3.19,1.4a18.9,18.9,0,0,1-1.7-.96A8.2,8.2,0,0,1,301.717,368.5Z" transform="translate(-218.219 -227.355)" opacity="0.1"/>
      <path id="Path_1485" data-name="Path 1485" d="M313.431,375.995q-.263.053-.527.095c-10.688,1.629-3.522-4.144-3.522-4.144s.48-.443,1.134-1.165A7.038,7.038,0,0,1,313.431,375.995Z" transform="translate(-222.715 -228.433)" opacity="0.1"/>
      <path id="Path_1486" data-name="Path 1486" d="M286.2,385.633s5.99-21.434,14.384-14.827-3.417,16.788-3.417,16.788Z" transform="translate(-212.868 -227.848)" fill="#a273ff"/>
      <circle id="Ellipse_243" data-name="Ellipse 243" cx="0.67" cy="0.67" r="0.67" transform="translate(75.69 133.611)" opacity="0.1"/>
      <circle id="Ellipse_244" data-name="Ellipse 244" cx="0.67" cy="0.67" r="0.67" transform="translate(75.631 136.748)" opacity="0.1"/>
      <circle id="Ellipse_245" data-name="Ellipse 245" cx="0.67" cy="0.67" r="0.67" transform="translate(95.109 134.227)" opacity="0.1"/>
      <circle id="Ellipse_246" data-name="Ellipse 246" cx="0.67" cy="0.67" r="0.67" transform="translate(79.439 150.289)" opacity="0.1"/>
      <circle id="Ellipse_247" data-name="Ellipse 247" cx="0.67" cy="0.67" r="0.67" transform="translate(93.707 139.431)" opacity="0.1"/>
      <circle id="Ellipse_248" data-name="Ellipse 248" cx="0.67" cy="0.67" r="0.67" transform="translate(86.767 146.371)" opacity="0.1"/>
      <circle id="Ellipse_249" data-name="Ellipse 249" cx="0.67" cy="0.67" r="0.67" transform="translate(77.983 134.956)" opacity="0.1"/>
      <circle id="Ellipse_250" data-name="Ellipse 250" cx="0.67" cy="0.67" r="0.67" transform="translate(93.258 136.242)" opacity="0.1"/>
      <circle id="Ellipse_251" data-name="Ellipse 251" cx="0.67" cy="0.67" r="0.67" transform="translate(90.965 141.446)" opacity="0.1"/>
      <circle id="Ellipse_252" data-name="Ellipse 252" cx="0.67" cy="0.67" r="0.67" transform="translate(83.915 149.788)" opacity="0.1"/>
      <circle id="Ellipse_253" data-name="Ellipse 253" cx="0.67" cy="0.67" r="0.67" transform="translate(82.46 146.487)" opacity="0.1"/>
      <circle id="Ellipse_254" data-name="Ellipse 254" cx="0.67" cy="0.67" r="0.67" transform="translate(78.991 139.042)" opacity="0.1"/>
      <rect id="Rectangle_474" data-name="Rectangle 474" width="20.432" height="1.961" transform="translate(71.434 174.184)" opacity="0.1"/>
      <rect id="Rectangle_475" data-name="Rectangle 475" width="26.696" height="18.75" transform="translate(68.186 156.726)" fill="#474157"/>
      <circle id="Ellipse_255" data-name="Ellipse 255" cx="0.67" cy="0.67" r="0.67" transform="translate(84.812 152.809)" opacity="0.1"/>
      <circle id="Ellipse_256" data-name="Ellipse 256" cx="0.67" cy="0.67" r="0.67" transform="translate(80.778 153.647)" opacity="0.1"/>
      <path id="Path_1487" data-name="Path 1487" d="M414.793,533.93s3.327,4.35-1.534,10.92-8.874,12.127-7.255,16.208c0,0,7.34-12.2,13.308-12.37S421.341,541.264,414.793,533.93Z" transform="translate(-269.33 -305.558)" fill="#ffd037"/>
      <path id="Path_1488" data-name="Path 1488" d="M414.964,533.93a5.535,5.535,0,0,1,.68,1.36c5.826,6.855,8.932,13.24,3.327,13.4-5.215.148-11.473,9.491-12.971,11.832a4.589,4.589,0,0,0,.174.527s7.34-12.2,13.308-12.37S421.512,541.264,414.964,533.93Z" transform="translate(-269.501 -305.558)" opacity="0.1"/>
      <path id="Path_1489" data-name="Path 1489" d="M434,543.562c0,1.534-.174,2.773-.385,2.773s-.385-1.239-.385-2.773.216-.807.427-.807S434,542.033,434,543.562Z" transform="translate(-282.374 -309.65)" fill="#ffd037"/>
      <path id="Path_1490" data-name="Path 1490" d="M436.338,546.969c-1.345.733-2.515,1.176-2.636.991s.907-.933,2.251-1.666.812-.2.912,0S437.682,546.236,436.338,546.969Z" transform="translate(-282.592 -311.226)" fill="#ffd037"/>
      <path id="Path_1491" data-name="Path 1491" d="M382.933,533.93s-3.332,4.35,1.534,10.92,8.874,12.127,7.25,16.208c0,0-7.334-12.2-13.308-12.37S376.363,541.264,382.933,533.93Z" transform="translate(-255.065 -305.558)" fill="#ffd037"/>
      <path id="Path_1492" data-name="Path 1492" d="M382.933,533.93a5.313,5.313,0,0,0-.68,1.36c-5.832,6.855-8.932,13.24-3.332,13.4,5.22.148,11.479,9.491,12.976,11.832a4.783,4.783,0,0,1-.179.527s-7.334-12.2-13.308-12.37S376.363,541.264,382.933,533.93Z" transform="translate(-255.065 -305.558)" opacity="0.1"/>
      <path id="Path_1493" data-name="Path 1493" d="M377.89,543.562c0,1.534.174,2.773.385,2.773s.385-1.239.385-2.773-.216-.807-.427-.807S377.89,542.033,377.89,543.562Z" transform="translate(-256.212 -309.65)" fill="#ffd037"/>
      <path id="Path_1494" data-name="Path 1494" d="M373.146,546.969c1.345.733,2.515,1.176,2.636.991s-.9-.933-2.246-1.666-.817-.2-.917,0S371.8,546.236,373.146,546.969Z" transform="translate(-253.588 -311.226)" fill="#ffd037"/>
      <ellipse id="Ellipse_257" data-name="Ellipse 257" cx="34.789" cy="5.341" rx="34.789" ry="5.341" transform="translate(101.869 278.103)" fill="#0e0d13" opacity="0.1"/>
      <path id="Path_1495" data-name="Path 1495" d="M408.136,572.44l-.169,1.36-.232,1.919-.095.8-.232,1.925-.105.8-.232,1.919-2.663,21.824c-.237,1.951-3.417,3.469-7.26,3.469H383.312c-3.838,0-7.018-1.518-7.255-3.469l-2.668-21.824-.232-1.919-.095-.8-.243-1.925-.095-.8-.232-1.919-.169-1.36c-.132-1.1,1.582-2.03,3.765-2.03h28.288C406.549,570.41,408.273,571.338,408.136,572.44Z" transform="translate(-253.578 -322.804)" fill="#65617d"/>
      <path id="Path_1496" data-name="Path 1496" d="M367.14,509.69l-.237,1.919H331.9l-.237-1.919Z" transform="translate(-212.745 -258.699)" fill="#9d9cb5"/>
      <path id="Path_1497" data-name="Path 1497" d="M367.106,514.85l-.232,1.919H332.527l-.237-1.919Z" transform="translate(-213.043 -261.138)" fill="#9d9cb5"/>
      <path id="Path_1498" data-name="Path 1498" d="M367.071,520.01l-.232,1.919H333.157l-.237-1.919Z" transform="translate(-213.34 -263.577)" fill="#9d9cb5"/>
      <path id="Path_1499" data-name="Path 1499" d="M577.666,416.387v1.086H545.55v-.881a10.555,10.555,0,0,0,.726-19.494H577.45a10.545,10.545,0,0,0,.216,19.288Z" transform="translate(-335.47 -240.875)" fill="#c8cad7"/>
      <path id="Path_1500" data-name="Path 1500" d="M578.1,397.1a10.545,10.545,0,0,0-5.826,7H552.767a10.576,10.576,0,0,0-5.837-7Z" transform="translate(-336.123 -240.875)" opacity="0.1"/>
      <path id="Path_1501" data-name="Path 1501" d="M475.8,386.6v6.1c0,3.364,2.468,6.1,5.5,6.1H575.8c3.037,0,5.5-2.731,5.5-6.1v-6.1Z" transform="translate(-302.497 -235.911)" fill="#c8cad7"/>
      <path id="Path_1502" data-name="Path 1502" d="M577.666,432.683v1.086H545.55v-.881a10.629,10.629,0,0,0,2.478-1.318H575.7A10.6,10.6,0,0,0,577.666,432.683Z" transform="translate(-335.47 -257.17)" opacity="0.1"/>
      <rect id="Rectangle_476" data-name="Rectangle 476" width="53.344" height="3.216" rx="1.608" transform="translate(199.471 174.737)" fill="#c8cad7"/>
      <path id="Path_1503" data-name="Path 1503" d="M581.3,254.975a5.5,5.5,0,0,0-5.5-5.5H481.3a5.5,5.5,0,0,0-5.5,5.5v67.986H581.3Z" transform="translate(-302.497 -171.085)" fill="#5f5d7e"/>
      <path id="Path_1504" data-name="Path 1504" d="M581,262.135v58.421a2.71,2.71,0,0,1-2.71,2.71H483.97a2.71,2.71,0,0,1-2.71-2.71V262.135a2.684,2.684,0,0,1,.39-1.35A2.715,2.715,0,0,1,484,259.43h94.3A2.71,2.71,0,0,1,581,262.135Z" transform="translate(-305.078 -175.793)" fill="#d4d9ff"/>
      <circle id="Ellipse_258" data-name="Ellipse 258" cx="1.271" cy="1.271" r="1.271" transform="translate(224.785 79.735)" fill="#fff"/>
      <circle id="Ellipse_259" data-name="Ellipse 259" cx="3.132" cy="3.132" r="3.132" transform="translate(222.924 153.91)" fill="#fff"/>
      <path id="Path_1505" data-name="Path 1505" d="M581,262.13H481.26a2.71,2.71,0,0,1,2.71-2.71h94.323A2.71,2.71,0,0,1,581,262.13Z" transform="translate(-305.078 -175.789)" fill="#2d2b39"/>
      <circle id="Ellipse_260" data-name="Ellipse 260" cx="0.675" cy="0.675" r="0.675" transform="translate(178.222 84.311)" fill="#ededf4"/>
      <circle id="Ellipse_261" data-name="Ellipse 261" cx="0.675" cy="0.675" r="0.675" transform="translate(180.252 84.311)" fill="#ededf4"/>
      <circle id="Ellipse_262" data-name="Ellipse 262" cx="0.675" cy="0.675" r="0.675" transform="translate(182.282 84.311)" fill="#ededf4"/>
      <g id="Group_261" data-name="Group 261" transform="translate(289.768 -10)">
        <path id="Path_1506" data-name="Path 1506" d="M849.6,305.49s-6.327,2.573-14.094,5.658a20.14,20.14,0,0,0-.612,2.71c-.137,1.793-3.691,4.318-3.691,4.318s-6.591,1.192-11.552,2.589c-3.854,1.055-4.387-1.055-3.891-1.877l-1.155.443c-.258,10.672-.554,18.454-.554,18.454s-1.687,0-4.35.127c-.032.337-.063.686-.1,1.055-1.018,10.545-2.89,27.945-4.339,29.39-2.109,2.04-1.176,17.078-.364,19.736s0,21.781,0,21.781a94.989,94.989,0,0,0-2.99,24.434c.274,12.749-3.533,19.393-3.533,19.393l-1.366.1c0,.353.042.7.058,1.055.063,1.155.111,2.31.127,3.359a8.257,8.257,0,0,0,1.582,4.44,27.293,27.293,0,0,1,4.424,10.414,22.741,22.741,0,0,1,.338,2.531,1.631,1.631,0,0,0,.026.327s-1.265,3.723-13.139,4.962-10.155-7.35-10.155-7.35-.058-.243-.132-.685a25.724,25.724,0,0,1-.047-8.784c.417-2.267.058-6.19-.459-9.786-.053-.374-.111-.743-.164-1.107a6.632,6.632,0,0,1-2.726-1.265c-3.717-3.391,0-30.344,0-30.344s6.707-22.045,5.072-25.235-3.533-10.888-3.533-10.888V358.612c-2.636-4.255-3.823-10.076-4.313-15.375-.032-.353-.063-.7-.09-1.055-2.2.042-4.308-.037-6.222-.169l-.527,1.055c-3.111,6.027-6.275,12-7.05,12.876-1.629,1.861-.269,10.361,0,14.611s-2.99,12.749-2.99,12.749c4.076,2.389,4.893,30.545,4.893,30.545s-2.99,6.907,3.264,14.611,3.807,22.314,2.99,21.781a12.946,12.946,0,0,0-3.422.385,9.039,9.039,0,0,0,1.793,3.438c2.019,2.51,2.71,6.443,2.911,9.586a34.355,34.355,0,0,1,0,4.919l-4.529,3.164s-2.81,0-2.81,2.484-6.886,4.956-6.886,4.956-10.24,2.831-18.128,0c-2.557-.917-3.338-2.494-3.037-4.408.622-4,5.974-9.491,9.834-13.477a17.709,17.709,0,0,0,4.318-9.4c.058-.332.105-.659.148-.981a3.112,3.112,0,0,1-.838-.691c-3.264-3.986-6.8-14.874-6.8-14.874s1.613-11.125-1.919-21.238c-2.636-7.482-5.837-25.019-7.324-33.608a33.5,33.5,0,0,1-.3-9.438c.685-6.269,1.74-17.885,1.366-27.08-.127-3-.037-7.772.169-13.366v-.079c-1.935-3.654-6.132-9.617-13.134-10.108-10.15-.712-4.893-6.285-4.893-6.285s5.953-41.828,9.876-49.252a3.087,3.087,0,0,1,.206-.374,22.71,22.71,0,0,0,1.882-5.23c3.865-14.263,8.811-49.4,8.811-49.4l.606-8.547c-6.053,2.969-17.284,8.384-21.813,9.965-6.327,2.215-15.133.8-17.31-6.464s6.886-21.956,6.886-21.956c1.334-5.209,10.545-16.055,15.338-21.439.464-.7.923-1.4,1.371-2.062,1.234-1.84,2.346-3.464,3.053-4.419l.069.132c.174-.243.337-.469.48-.659l.116.232a54.142,54.142,0,0,1,5.13-8.162c3.469-4.049,18.6-8.4,20.1-7.208,1.092.87-3.438,4.666-6.607,7l3.027-2.046,6.765-5.853,2.979-2.014a2.847,2.847,0,0,1,.39-.221,21.365,21.365,0,0,1,3.438-17.853c.211-.29.438-.58.664-.859-3.116-2.594-4.1-6.881-4.1-10.651v-.142a7.556,7.556,0,0,1,1.809-3.8c-.047.095-.095.2-.137.3a6.121,6.121,0,0,1,4.561-2.346c2.636-.042,4.846,1.687,7.16,2.874a18.5,18.5,0,0,0,15.423.527c1.429-.612,2.868-1.424,4.418-1.3a6.414,6.414,0,0,1,3.833,2.162,25.145,25.145,0,0,1,5.853,8.658,7.359,7.359,0,0,0,1.492,2.689,10.508,10.508,0,0,0,1.856,1.213,9.97,9.97,0,0,1,4.424,6.475,13.94,13.94,0,0,1-.8,7.83,11.832,11.832,0,0,1-2.921,4.535c-.986.912-2.167,1.582-3.211,2.441a11.549,11.549,0,0,0-1.323,1.265,25.093,25.093,0,0,1,12.48,6.918,32.725,32.725,0,0,1,6.327,8.5c4.413,8.294,7.092,13.456,8.684,16.73.8.243,1.286.359,1.286.359s5.979,5.31,5.89,20.537h0l4.624,30.455V239.26s5.953,16.91,4.977,30.9a2.822,2.822,0,0,1-.037.559l.485,2.378a5.479,5.479,0,0,1,1.054,3.522,4.505,4.505,0,0,1-.095,1.286l2.425,11.98-.459.485,1.25,3.517C852.161,301.414,849.6,305.49,849.6,305.49Zm-34.969-85.418c-.3.206-.469.311-.469.311s-2.636,23.606-1.055,37.642l5.552-.38,2.636-.812-.944-7.5s-3.38-19.767-5.7-29.258Zm-21.818-68.519-.527-.812c.111.29.222.575.338.838Zm25.061,106.355-2.874.3-1.819.38q.048.38.095.743ZM756.119,155.851a6.405,6.405,0,0,1,.053-.786l-2.257,1.339-.137.084c.78-.227,1.582-.427,2.341-.612ZM738.6,166.291a16.926,16.926,0,0,1,1-1.408c-1.582.38-2.562.6-2.562.6a7,7,0,0,0-3.754.38,20.9,20.9,0,0,1-1.3,2.278l-4.165,8.067a5.8,5.8,0,0,0,2.721-.8C732.355,174.527,738.6,166.291,738.6,166.291Zm79.138,151.854-1.3.527h0C816.729,318.761,817.193,318.55,817.741,318.144Z" transform="translate(-696.685 -100.809)" fill="url(#linear-gradient)"/>
        <path id="Path_1507" data-name="Path 1507" d="M859.96,184.29c-1.677.986-1.729,5.2-1.471,8.579.184,2.473.527,4.5.527,4.5l-10.909,26.522s-4.044-18.9-4.107-27.334a6.258,6.258,0,0,1,.3-1.961C846.2,188.513,856.9,185.139,859.96,184.29Z" transform="translate(-784.023 -140.273)" fill="#67647e"/>
        <path id="Path_1508" data-name="Path 1508" d="M843.317,183.89s-.3.069-.807.211a1.582,1.582,0,0,1,.807-.211Z" transform="translate(-766.593 -140.084)" fill="#67647e"/>
        <path id="Path_1509" data-name="Path 1509" d="M883.879,774.394l-4.392,3.164s-2.726,0-2.726,2.462-6.675,4.919-6.675,4.919-9.934,2.81-17.579,0c-2.478-.912-3.237-2.473-2.947-4.376.606-3.97,5.8-9.4,9.538-13.377a17.643,17.643,0,0,0,4.186-9.322,27.845,27.845,0,0,0,.3-6.67l16.082-1.144a10.619,10.619,0,0,0,0,7.535A9.805,9.805,0,0,0,881.068,760c1.961,2.489,2.636,6.4,2.826,9.491A34.756,34.756,0,0,1,883.879,774.394Z" transform="translate(-810.936 -407.725)" fill="#67647e"/>
        <path id="Path_1510" data-name="Path 1510" d="M811.607,783.577s-1.228,3.691-12.744,4.925-9.844-7.3-9.844-7.3-.058-.242-.132-.68a26.239,26.239,0,0,1-.042-8.721c.4-2.246.053-6.143-.448-9.712-.591-4.25-1.4-8.041-1.4-8.041l17.843,1.318s.311,3.633.49,7.3c.058,1.144.106,2.288.121,3.332a8.321,8.321,0,0,0,1.54,4.4,27.507,27.507,0,0,1,4.26,10.335,23.517,23.517,0,0,1,.327,2.51A2.957,2.957,0,0,1,811.607,783.577Z" transform="translate(-705.615 -409.616)" fill="#67647e"/>
        <path id="Path_1511" data-name="Path 1511" d="M883.885,791.842l-4.392,3.164s-2.726,0-2.726,2.462-6.675,4.919-6.675,4.919-9.934,2.81-17.579,0c-2.478-.912-3.237-2.473-2.947-4.376.237,0,.464.031.654.037,3.132.1,6.18.944,9.3,1.223a46.215,46.215,0,0,0,5.336.084,18.65,18.65,0,0,0,2.636-.206,19.253,19.253,0,0,0,5.948-2.536,3.375,3.375,0,0,0,1.186-.928,4.543,4.543,0,0,0,.527-1.413,9.8,9.8,0,0,1,4.65-5.547,20.279,20.279,0,0,1,4.1-1.766,34.75,34.75,0,0,1-.011,4.882Z" transform="translate(-810.943 -425.174)" fill="#67647e"/>
        <path id="Path_1512" data-name="Path 1512" d="M809.72,807.313s-1.228,3.691-12.744,4.925-9.844-7.3-9.844-7.3-.058-.243-.132-.68c.527.274.975.527,1.181.643,1.054.617,2,1.466,3.095,2.041,2.636,1.387,5.8.975,8.774.527,1.4-.211,2.795-.422,4.187-.68a10.6,10.6,0,0,0,3.063-.907,18.273,18.273,0,0,0,2.067-1.4,23.474,23.474,0,0,1,.327,2.51A2.812,2.812,0,0,1,809.72,807.313Z" transform="translate(-703.728 -433.352)" fill="#67647e"/>
        <path id="Path_1513" data-name="Path 1513" d="M883.885,791.842l-4.392,3.164s-2.726,0-2.726,2.462-6.675,4.919-6.675,4.919-9.934,2.81-17.579,0c-2.478-.912-3.237-2.473-2.947-4.376.237,0,.464.031.654.037,3.132.1,6.18.944,9.3,1.223a46.215,46.215,0,0,0,5.336.084,18.65,18.65,0,0,0,2.636-.206,19.253,19.253,0,0,0,5.948-2.536,3.375,3.375,0,0,0,1.186-.928,4.543,4.543,0,0,0,.527-1.413,9.8,9.8,0,0,1,4.65-5.547,20.279,20.279,0,0,1,4.1-1.766,34.75,34.75,0,0,1-.011,4.882Z" transform="translate(-810.943 -425.174)" opacity="0.1"/>
        <path id="Path_1514" data-name="Path 1514" d="M809.72,807.313s-1.228,3.691-12.744,4.925-9.844-7.3-9.844-7.3-.058-.243-.132-.68c.527.274.975.527,1.181.643,1.054.617,2,1.466,3.095,2.041,2.636,1.387,5.8.975,8.774.527,1.4-.211,2.795-.422,4.187-.68a10.6,10.6,0,0,0,3.063-.907,18.273,18.273,0,0,0,2.067-1.4,23.474,23.474,0,0,1,.327,2.51A2.812,2.812,0,0,1,809.72,807.313Z" transform="translate(-703.728 -433.352)" opacity="0.1"/>
        <path id="Path_1515" data-name="Path 1515" d="M874.057,750.05a10.618,10.618,0,0,0,0,7.535c-4.614.786-13.214,2.373-16.377.279a27.857,27.857,0,0,0,.3-6.67Z" transform="translate(-805.333 -407.725)" opacity="0.1"/>
        <path id="Path_1516" data-name="Path 1516" d="M817.243,762.671c-3.258.232-12.027.691-16.936-.58-.591-4.25-1.4-8.041-1.4-8.041l17.843,1.318S817.064,759,817.243,762.671Z" transform="translate(-717.531 -409.616)" opacity="0.1"/>
        <path id="Path_1517" data-name="Path 1517" d="M851.43,479.783s-.274,3.3-.712,7.909c-.986,10.472-2.8,27.761-4.218,29.169-2.025,2.03-1.144,16.952-.353,19.588s0,21.618,0,21.618a96.493,96.493,0,0,0-2.9,24.254c.264,12.655-3.427,19.246-3.427,19.246s-17.4,1.582-21-1.782,0-30.118,0-30.118,6.517-21.866,4.935-25.03-3.427-10.809-3.427-10.809V507.2c-2.557-4.218-3.691-10.018-4.181-15.259a80.215,80.215,0,0,1-.037-13.477s-3.274,6.7-6.612,13.319c-3.016,5.984-6.085,11.906-6.855,12.781-1.582,1.845-.263,10.282,0,14.5s-2.9,12.654-2.9,12.654c3.955,2.373,4.745,30.318,4.745,30.318s-2.9,6.855,3.164,14.5,3.691,22.145,2.9,21.618-16.873,3.955-20.036,0-6.591-14.763-6.591-14.763,1.582-11.073-1.845-21.091c-2.541-7.424-5.658-24.829-7.1-33.355a33.988,33.988,0,0,1-.258-9.364c.664-6.227,1.687-17.753,1.323-26.891-.121-2.979-.037-7.714.163-13.266.68-19.034,2.737-47.634,2.737-47.634l14.289-9.681,9.433-6.391,2.309.353,43.036,6.649,1.671,21.228Z" transform="translate(-738.853 -249.677)" fill="#444053"/>
        <path id="Path_1518" data-name="Path 1518" d="M901.935,427.86,901.181,432s-6.327,30.318-7.645,45.872-6.854,11.073-6.854,11.073a24.673,24.673,0,0,0-1.772-3.775c.68-19.034,2.737-47.633,2.737-47.633Z" transform="translate(-847.568 -255.416)" opacity="0.1"/>
        <path id="Path_1519" data-name="Path 1519" d="M829.055,181.9S799.528,205.542,804.98,200.8c2.984-2.6.954-13.709-1.492-23.2-2.014-7.83-4.308-14.568-4.308-14.568s25.773-24.112,23.9-4.4c-.659,6.949-.111,11.89.875,15.38C825.765,180.407,829.055,181.9,829.055,181.9Z" transform="translate(-729.485 -124.479)" fill="#efb7b9"/>
        <path id="Path_1520" data-name="Path 1520" d="M824.311,197.8l-18.718,14.632-5.446-6.064s-4.661-2.019-5.009.264-1.671,16.345,1.055,17.663a17.06,17.06,0,0,0,9.312,1.761c3.074-.438,6.506-3.87,8.789-5.188s10.719-8.173,10.719-8.173l4.218-5.884Z" transform="translate(-727.199 -146.659)" opacity="0.1"/>
        <path id="Path_1521" data-name="Path 1521" d="M824.311,198.8l-18.718,14.632-5.446-6.064s-4.661-2.019-5.009.264-1.671,16.345,1.055,17.664a17.06,17.06,0,0,0,9.312,1.761c3.074-.438,6.506-3.87,8.789-5.188s10.719-8.173,10.719-8.173l4.218-5.884Z" transform="translate(-727.199 -147.132)" fill="#a36468"/>
        <path id="Path_1522" data-name="Path 1522" d="M824.954,480.086s-.274,3.3-.712,7.909c-5.8.221-17.052.907-24.95,2.974a43.294,43.294,0,0,1-9.628,1.26,80.248,80.248,0,0,1-.037-13.477s-3.274,6.7-6.612,13.319a69.73,69.73,0,0,1-8.5-1.1l3.517-45.7s-.116-15.338.464-28.91l43.041,6.665,1.671,21.228Z" transform="translate(-712.376 -249.979)" opacity="0.1"/>
        <path id="Path_1523" data-name="Path 1523" d="M796.37,212.464s12.786-13.978,15.818-11.758,4.993,7.63,4.993,7.63l-10.414,11.421Z" transform="translate(-716.13 -147.92)" opacity="0.1"/>
        <path id="Path_1524" data-name="Path 1524" d="M795.37,211.464s12.786-13.978,15.818-11.758,4.993,7.63,4.993,7.63l-10.414,11.421Z" transform="translate(-714.603 -147.447)" fill="#a36468"/>
        <path id="Path_1525" data-name="Path 1525" d="M841,223.985l7.382-9.254s-1.16-8.747-3.86-7.63S841,212.7,841,212.7Z" transform="translate(-770.862 -151.01)" opacity="0.1"/>
        <path id="Path_1526" data-name="Path 1526" d="M842.07,222.825l7.345-9.254s-1.16-8.747-3.86-7.63-3.485,5.594-3.485,5.594Z" transform="translate(-772.46 -150.462)" fill="#a36468"/>
        <path id="Path_1527" data-name="Path 1527" d="M832.149,206.55s-15.138,16.345-24.175,17.442c-.817.1-1.635.237-2.441.4-2.362.464-7.508,0-6.691-13.514l-1.139-2.394-7.034,4.308-2.373,19.33-4.218,49.563-6.238,55.189s19.156-1.845,24.518,2.99,6.854-26.363,6.854-26.363l14.674-63.272,15.644-40.689Z" transform="translate(-728.709 -150.796)" opacity="0.1"/>
        <path id="Path_1528" data-name="Path 1528" d="M839.531,213.554l-15.644,40.689-14.674,63.272s-1.5,31.193-6.854,26.363c-1.75-1.582-4.977-2.447-8.526-2.895a77.327,77.327,0,0,0-13.139-.3c-1.75.095-2.853.2-2.853.2l6.243-55.189,4.218-49.563,2.373-19.33L797.7,212.5l1.144,2.394c0,.353-.037.7-.053,1.055-.5,12.486,4.445,12.929,6.738,12.475.812-.163,1.624-.3,2.447-.4,6.4-.786,15.86-9.206,20.832-14.046,2.051-2,3.343-3.4,3.343-3.4Z" transform="translate(-728.709 -152.701)" opacity="0.1"/>
        <path id="Path_1529" data-name="Path 1529" d="M839.531,210.554l-15.644,40.689-14.674,63.272s-1.5,31.193-6.854,26.363c-1.75-1.582-4.977-2.447-8.526-2.895a77.327,77.327,0,0,0-13.139-.3c-1.75.095-2.853.2-2.853.2l6.243-55.189,4.218-49.563,2.373-19.33L797.7,209.5l1.144,2.394c0,.353-.037.7-.053,1.055-.5,12.486,4.445,12.929,6.738,12.475.812-.163,1.624-.3,2.447-.4,6.4-.786,15.86-9.206,20.832-14.046,2.051-2,3.343-3.4,3.343-3.4Z" transform="translate(-728.709 -151.283)" fill="#25f"/>
        <path id="Path_1530" data-name="Path 1530" d="M876,213.614c0,.353-.037.7-.053,1.055l-.121.084c-1.856,1.223-4.835,21.882-4.835,21.882l-3.865,52.637-7.118,39.282s-.933,4.476-2.157,10.872c-1.751.095-2.852.2-2.852.2l6.237-55.205,4.218-49.563,2.373-19.33,7.029-4.308Z" transform="translate(-805.863 -153.003)" opacity="0.1"/>
        <path id="Path_1531" data-name="Path 1531" d="M902.248,206.857s-4.218,3.417-6.074,4.64-4.835,21.882-4.835,21.882l-3.865,52.637L880.356,325.3s-6.327,30.318-7.645,45.872-6.855,11.073-6.855,11.073-4.134-12.127-13.973-12.828-4.745-6.243-4.745-6.243,5.763-41.533,9.554-48.931a3.43,3.43,0,0,1,.2-.369,23.054,23.054,0,0,0,1.824-5.194c3.749-14.152,8.542-49.036,8.542-49.036l2.99-43.236c7.651-12.47,31.378-12.038,31.378-12.038Z" transform="translate(-827.27 -149.764)" fill="#67647e"/>
        <path id="Path_1532" data-name="Path 1532" d="M823.538,210.54l-15.644,40.689L793.22,314.5s-1.5,31.193-6.854,26.363c-1.751-1.582-4.978-2.447-8.526-2.895.063-10.725.39-29.97,1.935-38.058a107.458,107.458,0,0,0,1.666-22.409L800.6,235.759s14.41-17.764,14.5-20.305c.032-.939-.991-2.679-2.288-4.508,2.051-2,3.343-3.4,3.343-3.4Z" transform="translate(-712.717 -151.269)" opacity="0.1"/>
        <path id="Path_1533" data-name="Path 1533" d="M732.508,388.449l3.512-45.7s-.264-34.1,1.935-45.609a107.269,107.269,0,0,0,1.672-22.409l19.156-41.744s14.41-17.764,14.5-20.305-7.545-10.994-7.545-10.994,16.683,1.951,18.882,9.417,14.236,10.371,14.236,10.371,5.8,5.273,5.71,20.389-18.454,26.975-18.454,26.975-3.074,28.473-.438,41.306.353,75.22.353,75.22-17.663.179-28.736,3.079S732.508,388.449,732.508,388.449Z" transform="translate(-669.842 -148.498)" fill="#67647e"/>
        <path id="Path_1534" data-name="Path 1534" d="M701.084,405.31l13.535,51.229s1.845,4.571,11.336,1.055,37.083-14.938,37.083-14.938,2.462-4.044-2.109-11.51l-13.8-40.426Z" transform="translate(-612.408 -237.859)" fill="#b07473"/>
        <path id="Path_1535" data-name="Path 1535" d="M666.77,367.557,688.652,343.5l13.973-5.668,5.737,28.931L681.8,395.629Z" transform="translate(-560.588 -177.455)" fill="#e1e7ef"/>
        <path id="Path_1536" data-name="Path 1536" d="M737.561,476.59s-6.507,3.823-8.22,3.955-7.767,11.558-5.209,11.468,8.5-3.164,7.909-1.582-4.471,6.327-5.6,5.879-1.65,3.48,3.164,2.109,11.2-2.573,11.2-2.573,3.427-2.5,3.559-4.281,3.095-11.141,3.095-11.141Z" transform="translate(-607.995 -278.452)" fill="#efb7b9"/>
        <path id="Path_1537" data-name="Path 1537" d="M872.256,199.493s5.631-12.154,9-16.177,18.038-8.341,19.509-7.155-7.382,7.851-8.963,8.705,10.224,8.79,10.461,8.964,9.227-.8,4.614,2.23-18.254,6.122-18.254,6.122a6.854,6.854,0,0,0-5.273,1.26C880.7,205.361,872.256,199.493,872.256,199.493Z" transform="translate(-847.147 -136.336)" fill="#efb7b9"/>
        <path id="Path_1538" data-name="Path 1538" d="M734.426,473.22a36.492,36.492,0,0,1-2.984,7.039c-1.318-1.192-13.9-5.341-13.9-5.341l1.4-2.157,2.278-3.512s11.22-2.436,13.129,0C734.985,470.067,734.869,471.575,734.426,473.22Z" transform="translate(-592.173 -274.47)" opacity="0.1"/>
        <path id="Path_1539" data-name="Path 1539" d="M733.426,472.22a36.489,36.489,0,0,1-2.984,7.039c-1.318-1.192-13.9-5.341-13.9-5.341l1.4-2.156,2.278-3.512s11.22-2.436,13.129,0C733.985,469.067,733.868,470.575,733.426,472.22Z" transform="translate(-590.646 -273.997)" fill="#a36468"/>
        <path id="Path_1540" data-name="Path 1540" d="M933.387,215.892a18.512,18.512,0,0,1-1.424,2.6c-2.03,3.2-5.1,6.976-5.1,6.976s-11.99-5.515-11.99-5.758,3.638-5.974,6.6-10.493c1.2-1.824,2.278-3.438,2.963-4.382,0,0,4.477,9.364,8.9,9.428C934.479,214.283,933.862,214.747,933.387,215.892Z" transform="translate(-895.413 -149.987)" opacity="0.1"/>
        <path id="Path_1541" data-name="Path 1541" d="M934.387,216.892a18.523,18.523,0,0,1-1.424,2.6c-2.03,3.2-5.1,6.976-5.1,6.976s-11.99-5.515-11.99-5.758,3.638-5.974,6.6-10.493c1.2-1.824,2.278-3.438,2.963-4.382,0,0,4.477,9.364,8.9,9.428C935.479,215.283,934.862,215.747,934.387,216.892Z" transform="translate(-896.94 -150.46)" fill="#a36468"/>
        <path id="Path_1542" data-name="Path 1542" d="M711.25,337.582l-1.54-4.614,21.607-1.519-8.072.859-10.282,2.2.791,3.069Z" transform="translate(-606.186 -174.439)" fill="#b07473"/>
        <path id="Path_1543" data-name="Path 1543" d="M732.029,472.22c-2.383-1.123-8.742-3.459-15.491-.459l2.278-3.512s11.22-2.436,13.129,0C732.587,469.067,732.471,470.575,732.029,472.22Z" transform="translate(-589.249 -273.997)" opacity="0.1"/>
        <path id="Path_1544" data-name="Path 1544" d="M743.681,348.974c-.053.765-.1,1.529-.148,2.288-.132,2.325-.221,4.629-.279,6.855-.264,10.3.163,18.8.163,18.8s-8.173-4.919-16.873-.791l-.875-16.672v-.29l-.891-7.292-2.889-23.553s-5.447-32.691-7.118-33.919,12.391-27.682,12.391-27.682l7.208,5.89,4.482,30.228V318.3S744.651,335.091,743.681,348.974Z" transform="translate(-599.641 -179.24)" fill="#67647e"/>
        <path id="Path_1545" data-name="Path 1545" d="M935.291,218.611l-1.687,3.348c-2.03,3.2-5.1,6.976-5.1,6.976s-11.99-5.515-11.99-5.758,3.638-5.974,6.6-10.493c.912-1.055,1.466-1.635,1.466-1.635C921.055,219.75,935.291,218.611,935.291,218.611Z" transform="translate(-897.586 -152.923)" opacity="0.1"/>
        <path id="Path_1546" data-name="Path 1546" d="M942.757,217.581l-4.925,2.468s-6.064,8.173-7.819,9.053a5.493,5.493,0,0,1-2.636.791l5.183-10.282s-14.236,1.139-10.719-7.561c0,0-15.908,17.4-17.663,24.434,0,0-8.79,14.584-6.681,21.792s10.635,8.61,16.788,6.417,25.045-11.864,25.045-11.864Z" transform="translate(-894.855 -153.396)" fill="#67647e"/>
        <path id="Path_1547" data-name="Path 1547" d="M942.946,255.05S929.675,269.9,930.73,271.923,942.245,258.04,942.946,255.05Z" transform="translate(-912.707 -173.723)" opacity="0.1"/>
        <path id="Path_1548" data-name="Path 1548" d="M762.057,178.578s18.676-5.626,29.221,14.674,10.9,21.708,10.371,22.673-21-4.392-22.145-2.019,11.6,12.127,11.6,12.127l-49.384,37.436,20.748-44.1a33.217,33.217,0,0,1,5.515-8.473c3.411-3.817,8.078-9.665,6.427-11.468-1.455-1.582-3.786-5.71-6.928-10.461C765.179,185.48,761.52,181.552,762.057,178.578Z" transform="translate(-671.931 -137.235)" opacity="0.2"/>
        <path id="Path_1549" data-name="Path 1549" d="M762.53,177.579s18.676-5.626,29.221,14.674,10.9,21.708,10.371,22.673-21-4.392-22.145-2.019,11.6,12.127,11.6,12.127L742.721,263l20.221-44.628a33.216,33.216,0,0,1,5.515-8.473c3.411-3.817,8.078-9.665,6.427-11.468-1.455-1.582-3.786-5.71-6.928-10.461C765.652,184.48,761.992,180.552,762.53,177.579Z" transform="translate(-672.931 -136.762)" fill="#67647e"/>
        <path id="Path_1550" data-name="Path 1550" d="M762.53,177.579s18.676-5.626,29.221,14.674,10.9,21.708,10.371,22.673-21-4.392-22.145-2.019,11.6,12.127,11.6,12.127L742.721,263l21.191-46.774a18.343,18.343,0,0,1,3.29-4.951c3.338-3.6,9.549-10.8,7.682-12.844-1.455-1.582-3.786-5.71-6.928-10.461C765.652,184.48,761.992,180.552,762.53,177.579Z" transform="translate(-672.931 -136.762)" opacity="0.1"/>
        <ellipse id="Ellipse_263" data-name="Ellipse 263" cx="3.865" cy="3.865" rx="3.865" ry="3.865" transform="translate(89.557 126.145)" fill="#444053"/>
        <ellipse id="Ellipse_264" data-name="Ellipse 264" cx="3.865" cy="3.865" rx="3.865" ry="3.865" transform="translate(89.557 150.136)" fill="#444053"/>
        <path id="Path_1551" data-name="Path 1551" d="M730.482,433.386c-2.225.527-12.776.29-17.574,1.339v-.29l-.891-7.292c5.41-.675,17.168-1.956,18.76-.612C732.839,428.287,733.135,432.779,730.482,433.386Z" transform="translate(-586.87 -254.509)" fill="#67647e"/>
        <path id="Path_1552" data-name="Path 1552" d="M730.482,434.386c-2.225.527-12.776.29-17.574,1.339v-.29l-.891-7.292c5.41-.675,17.168-1.956,18.76-.612C732.839,429.287,733.135,433.779,730.482,434.386Z" transform="translate(-586.87 -254.981)" opacity="0.1"/>
        <path id="Path_1553" data-name="Path 1553" d="M730.482,433.386c-2.225.527-12.776.29-17.574,1.339v-.29l-.891-7.292c5.41-.675,17.168-1.956,18.76-.612C732.839,428.287,733.135,432.779,730.482,433.386Z" transform="translate(-586.87 -254.509)" opacity="0.1"/>
        <ellipse id="Ellipse_265" data-name="Ellipse 265" cx="2.331" cy="2.331" rx="2.331" ry="2.331" transform="translate(138.983 173.024)" fill="#444053"/>
        <path id="Path_1554" data-name="Path 1554" d="M779.84,451.05l9.844,33.571s2.636,1.229,2.636-.965S779.84,451.05,779.84,451.05Z" transform="translate(-682.553 -266.378)" fill="#fff" opacity="0.1"/>
        <path id="Path_1555" data-name="Path 1555" d="M834.142,172.346a20.993,20.993,0,0,1-1.946,1.387c-3.348,2.109-6.327,4.977-10.6,4.977a21.581,21.581,0,0,1-6.965-1.144c-2.014-7.83-4.308-14.568-4.308-14.568s25.773-24.112,23.9-4.4C833.568,165.55,833.156,168.856,834.142,172.346Z" transform="translate(-740.631 -124.464)" opacity="0.1"/>
        <path id="Path_1556" data-name="Path 1556" d="M836.7,141.219a21.549,21.549,0,1,1-6.311-15.338A21.65,21.65,0,0,1,836.7,141.219Z" transform="translate(-734.081 -109.677)" fill="#efb7b9"/>
        <path id="Path_1557" data-name="Path 1557" d="M889.711,183.2a2.447,2.447,0,0,1-1.012,1.186l-3.438,2.109-6.427,3.907-10.171,6.18q-.359.216-.728.4a8.753,8.753,0,0,1-7.714.105,6.327,6.327,0,0,1-3.6-4.492,7.5,7.5,0,0,1,2.752-7.382.485.485,0,0,1,.19-.1,18.588,18.588,0,0,0,6.011-2.937l6.4-4.429,5.716-5.225,2.889-2a2.694,2.694,0,0,1,2.905-.105C886.447,172.128,892.347,176.536,889.711,183.2Z" transform="translate(-821.013 -133.536)" fill="#e1e7ef"/>
        <path id="Path_1558" data-name="Path 1558" d="M880.3,188.653l-6.427,3.907c-1.339-5.4-4.745-9.211-7.7-12.09l6.559-5.8C877.717,177.143,879.7,185.389,880.3,188.653Z" transform="translate(-816.053 -135.725)" fill="#01d6aa"/>
        <path id="Path_1559" data-name="Path 1559" d="M910.459,210.519a8.753,8.753,0,0,1-7.714.105,6.327,6.327,0,0,1-3.6-4.492,7.5,7.5,0,0,1,2.752-7.382,16.2,16.2,0,0,1,4.376,2.747,12.3,12.3,0,0,1,3.786,5.958A12.66,12.66,0,0,1,910.459,210.519Z" transform="translate(-863.521 -147.109)" opacity="0.1"/>
        <path id="Path_1560" data-name="Path 1560" d="M832.724,141.22a21.549,21.549,0,0,1-2.014,9.127,12.22,12.22,0,0,0-2.91,4.619c-1.466,1.782-2.041,2.789-4,4.023-.786-.828-2.557-1.329-2.879-2.4-.817-2.758-.353-5.705-.311-8.579,0-1.276-.179-2.784-1.3-3.4a3.177,3.177,0,0,0-3.026.369,8.1,8.1,0,0,1-2.884,1.308,4.446,4.446,0,0,1-3.912-2.241c-.886-1.308-1.4-2.837-2.236-4.176a19.3,19.3,0,0,0-4.35-4.44c-1.84-1.519-3.628-3.2-5.589-4.561-1.171-.817-2.573-1.2-3.728-2.019l-.185-.137a21.65,21.65,0,0,1,39.324,12.5Z" transform="translate(-730.106 -109.678)" opacity="0.1"/>
        <path id="Path_1561" data-name="Path 1561" d="M780.636,109.912c.459-3.037,2.974-5.89,6.043-5.942,2.536-.042,4.7,1.677,6.944,2.853a17.548,17.548,0,0,0,14.959.527c1.376-.606,2.779-1.413,4.281-1.287a6.416,6.416,0,0,1,3.744,2.109,25.107,25.107,0,0,1,5.673,8.594,7.393,7.393,0,0,0,1.445,2.673,10.71,10.71,0,0,0,1.8,1.2,9.94,9.94,0,0,1,4.266,6.417,14.177,14.177,0,0,1-.775,7.777,11.941,11.941,0,0,1-2.831,4.5c-.96.9-2.109,1.582-3.116,2.42a12.471,12.471,0,0,0-4.218,11.542c-2.805.643-5.494-1.867-6.327-4.624s-.353-5.7-.311-8.579c0-1.276-.179-2.779-1.3-3.39a3.177,3.177,0,0,0-3.026.369A8.149,8.149,0,0,1,805,138.374a4.446,4.446,0,0,1-3.912-2.241c-.886-1.308-1.392-2.837-2.236-4.176a19.2,19.2,0,0,0-4.35-4.44c-1.84-1.519-3.628-3.2-5.584-4.561-1.176-.817-2.578-1.2-3.733-2.019C781.717,118.453,780.636,113.9,780.636,109.912Z" transform="translate(-720.674 -102.302)" fill="#585268"/>
        <path id="Path_1562" data-name="Path 1562" d="M843.317,183.89s-.3.069-.807.211a1.582,1.582,0,0,1,.807-.211Z" transform="translate(-766.593 -140.084)" opacity="0.1"/>
        <g id="Group_260" data-name="Group 260" transform="translate(59.961 3.697)" opacity="0.1">
          <path id="Path_1563" data-name="Path 1563" d="M834.745,148.784c-.817-2.758-.353-5.705-.311-8.579,0-1.276-.179-2.784-1.3-3.4a3.177,3.177,0,0,0-3.026.369,8.058,8.058,0,0,1-2.884,1.308,4.436,4.436,0,0,1-3.912-2.241c-.886-1.313-1.392-2.837-2.236-4.176a19.2,19.2,0,0,0-4.35-4.44c-1.84-1.513-3.628-3.2-5.584-4.561-1.176-.817-2.578-1.2-3.733-2.019-3.49-2.5-4.571-7.055-4.571-11.036a7.383,7.383,0,0,1,.7-2.193,7.546,7.546,0,0,0-1.756,3.786c0,3.981,1.054,8.536,4.571,11.036,1.155.823,2.557,1.2,3.733,2.019,1.956,1.36,3.743,3.048,5.584,4.561a19.2,19.2,0,0,1,4.35,4.44c.844,1.339,1.344,2.868,2.236,4.176a4.464,4.464,0,0,0,3.912,2.241,8.32,8.32,0,0,0,2.884-1.308,3.259,3.259,0,0,1,3.026-.369c1.123.612,1.323,2.109,1.3,3.4-.042,2.874-.527,5.8.311,8.579s3.512,5.273,6.327,4.619a11.031,11.031,0,0,1-.164-1.5C837.508,153.3,835.446,151.151,834.745,148.784Z" transform="translate(-801.78 -107.82)"/>
          <path id="Path_1564" data-name="Path 1564" d="M790.133,166.949c-.96.9-2.109,1.582-3.116,2.42a12.02,12.02,0,0,0-2.747,3.327,11.766,11.766,0,0,1,1.693-1.745c1.012-.838,2.157-1.519,3.116-2.42A10.292,10.292,0,0,0,791,166.01a9.707,9.707,0,0,1-.865.939Z" transform="translate(-743.528 -135.328)"/>
        </g>
        <path id="Path_1565" data-name="Path 1565" d="M835.8,517.271a13.807,13.807,0,0,0-1.007,3.469c-.126,2.051,1.128,3.965,1.218,6.021.105,2.394-1.35,4.54-2.742,6.485a4.884,4.884,0,0,0,4.292-1.988,6.484,6.484,0,0,0,.617-1.735c1.492-5.953,2.942-12.465.348-18.022a7.965,7.965,0,0,0-1.714-2.573C836.377,511.735,836.746,514.493,835.8,517.271Z" transform="translate(-758.362 -293.74)" opacity="0.1"/>
        <path id="Path_1566" data-name="Path 1566" d="M926.442,424.823l-4.382-5.911a12.767,12.767,0,0,1-2.525-4.651c-.411-1.9.068-3.875.132-5.8V407.8a3.378,3.378,0,0,1,.2-.369,23.056,23.056,0,0,0,1.824-5.194,6.325,6.325,0,0,1,1.455,2.241c2.041,4.977.153,10.819,1.84,15.924A22.823,22.823,0,0,1,926.442,424.823Z" transform="translate(-890.245 -243.305)" opacity="0.1"/>
        <path id="Path_1567" data-name="Path 1567" d="M869.48,784.41a18.676,18.676,0,0,0,15.148,3" transform="translate(-822.126 -423.968)" opacity="0.1"/>
        <path id="Path_1568" data-name="Path 1568" d="M798.69,785.115a11.1,11.1,0,0,0,16.171-1.055" transform="translate(-715.033 -423.803)" opacity="0.1"/>
        <path id="Path_1569" data-name="Path 1569" d="M884.186,630.97a9.981,9.981,0,0,1-10.946-4.84" transform="translate(-823.666 -349.144)" opacity="0.1"/>
        <path id="Path_1570" data-name="Path 1570" d="M807.99,658.264a14.59,14.59,0,0,0,9.412-2.584" transform="translate(-722.477 -363.113)" opacity="0.1"/>
        <path id="Path_1571" data-name="Path 1571" d="M875.047,721c-2.81,1.144-5.315,2.921-8.051,4.218s-5.905,2.151-8.805,1.244" transform="translate(-806.591 -393.992)" opacity="0.1"/>
      </g>
      <ellipse id="Ellipse_266" data-name="Ellipse 266" cx="44.881" cy="12.944" rx="44.881" ry="12.944" transform="translate(178.265 308.938)" fill="#5f5d7e"/>
      <ellipse id="Ellipse_267" data-name="Ellipse 267" cx="8.979" cy="2.589" rx="8.979" ry="2.589" transform="translate(214.166 315.123)" opacity="0.1"/>
      <rect id="Rectangle_477" data-name="Rectangle 477" width="9.227" height="68.281" transform="translate(218.153 249.431)" fill="#5f5d7e"/>
      <path id="Path_1572" data-name="Path 1572" d="M570.087,577.25v7.909c-1.845-.57-6.058-2.969-9.227-4.856V573.87h1.925Z" transform="translate(-342.707 -324.439)" opacity="0.1"/>
      <path id="Path_1573" data-name="Path 1573" d="M537.13,504.473s30.466-7.841,38.048-13.709,37.357,21.75,33.424,32.163S590.347,540.9,590.347,540.9s-39.608,6.443-46.347-7S537.13,504.473,537.13,504.473Z" transform="translate(-331.49 -284.77)" fill="#3a3f5c"/>
      <path id="Path_1574" data-name="Path 1574" d="M537.13,504.473s30.466-7.841,38.048-13.709,37.357,21.75,33.424,32.163S590.347,540.9,590.347,540.9s-39.608,6.443-46.347-7S537.13,504.473,537.13,504.473Z" transform="translate(-331.49 -284.77)" fill="#25f" opacity="0.1"/>
      <path id="Path_1575" data-name="Path 1575" d="M532.13,498.473s30.466-7.84,38.048-13.709,37.357,21.75,33.424,32.163S585.347,534.9,585.347,534.9s-39.608,6.443-46.347-7S532.13,498.473,532.13,498.473Z" transform="translate(-329.126 -281.934)" fill="#25f"/>
      <path id="Path_1576" data-name="Path 1576" d="M650.587,409.534a1.8,1.8,0,0,1-.338-.047.7.7,0,0,1,.338.047Z" transform="translate(-384.965 -246.728)" opacity="0.1"/>
      <path id="Path_1577" data-name="Path 1577" d="M459.7,466.911c-3.042-.743-11.431-1.429-15.423,11.959a59.238,59.238,0,0,1-3.538,9.053c-3.833,7.862-8.774,24.022,12.976,27.581l52.2,11.864s27.945,3.427,29.791,2.109,1.582-4.218,1.582-4.218-30.845,0-36.909-9.491-6.327-22.409-6.327-22.409.759-19.947-31.109-25.741C461.867,467.423,460.781,467.175,459.7,466.911Z" transform="translate(-284.336 -273.719)" fill="#3a3f5c"/>
      <path id="Path_1578" data-name="Path 1578" d="M459.7,467.081c-3.042-.743-11.431-1.429-15.423,11.958a59.489,59.489,0,0,1-3.538,9.058c-3.833,7.856-8.774,24.022,12.976,27.581l52.2,11.864s27.945,3.427,29.791,2.109,1.582-4.218,1.582-4.218-30.845,0-36.909-9.491-6.327-22.409-6.327-22.409.759-19.947-31.109-25.741C461.867,467.593,460.781,467.345,459.7,467.081Z" transform="translate(-284.336 -273.799)" fill="#25f" opacity="0.1"/>
      <path id="Path_1579" data-name="Path 1579" d="M622.2,435.226a8.067,8.067,0,0,0-8.146-6.818c-6.7.127-25.836.939-37.5,6.1-2.563,1.134-5.13,2.236-7.767,3.164-2.383.849-5.225,2.2-6.633,4.15s-34.536,27.418,13.182,51.936c0,0,25.573,7.282,35.591-9.8,0,0,7.118-18.354,6.591-24.708s4.745-23.49,4.745-23.49S622.25,435.574,622.2,435.226Z" transform="translate(-337.409 -255.674)" fill="#25f"/>
      <path id="Path_1580" data-name="Path 1580" d="M621.934,444.459a7.906,7.906,0,0,0-8.146-6.29c-7.508.127-30.618,1.055-41.354,7.524,0,0-8.173,4.867-10.545,4.867S527.352,475.869,575.07,498.5c0,0,25.573,6.717,35.591-9.053,0,0,7.118-16.941,6.591-22.8S622,444.96,622,444.96,621.987,444.776,621.934,444.459Z" transform="translate(-337.146 -260.289)" fill="#37416d"/>
      <rect id="Rectangle_478" data-name="Rectangle 478" width="8.436" height="17.964" rx="4.218" transform="translate(250.843 237.111)" fill="#37416d"/>
    </g>
  </g>
</svg>
