<svg xmlns="http://www.w3.org/2000/svg" width="111.551" height="108.839" viewBox="0 0 111.551 108.839">
  <g id="Group_296" data-name="Group 296" transform="translate(-1032.08 -760.5)">
    <g id="undraw_No_data_re_kwbl" transform="translate(1032.663 761.009)">
      <path id="Path_1670" data-name="Path 1670" d="M378.779,181.554H349.013a2.562,2.562,0,0,0-2.559,2.559v66.156l-.341.1-7.3,2.236a1.366,1.366,0,0,1-1.7-.906l-21.721-70.949a1.365,1.365,0,0,1,.906-1.7l11.253-3.446,32.622-9.985,11.253-3.446a1.363,1.363,0,0,1,1.7.9l5.552,18.135Z" transform="translate(-308.65 -157.304)" fill="#e4e6f2"/>
      <path id="Path_1671" data-name="Path 1671" d="M352.808,157.826l-6.691-21.857a2.9,2.9,0,0,0-3.621-1.924l-15.82,4.842-32.62,9.987-15.82,4.844a2.9,2.9,0,0,0-1.924,3.621l22.87,74.7a2.9,2.9,0,0,0,2.774,2.052,2.864,2.864,0,0,0,.848-.128l10.845-3.319.341-.106v-.356l-.341.1L302.7,233.636a2.561,2.561,0,0,1-3.195-1.7l-22.868-74.7a2.555,2.555,0,0,1,1.7-3.195l15.82-4.844,32.62-9.985,15.82-4.844a2.556,2.556,0,0,1,3.195,1.7l6.661,21.758.106.341h.355Z" transform="translate(-276.183 -133.917)" fill="#3a3f5c" stroke="#3a3f5c" stroke-width="1"/>
      <path id="Path_1672" data-name="Path 1672" d="M380.708,167.231a1.538,1.538,0,0,1-1.469-1.086l-2.2-7.176a1.535,1.535,0,0,1,1.019-1.917l30.01-9.188a1.537,1.537,0,0,1,1.917,1.018l2.2,7.176a1.537,1.537,0,0,1-1.018,1.917l-30.01,9.188A1.531,1.531,0,0,1,380.708,167.231Z" transform="translate(-359.782 -145.429)" fill="#25f"/>
      <circle id="Ellipse_291" data-name="Ellipse 291" cx="3.411" cy="3.411" r="3.411" transform="translate(29.023 0.844)" fill="#25f"/>
      <circle id="Ellipse_292" data-name="Ellipse 292" cx="2.16" cy="2.16" r="2.16" transform="translate(30.274 2.096)" fill="#fff"/>
      <path id="Path_1673" data-name="Path 1673" d="M591.421,366.068H533.768a1.452,1.452,0,0,1-1.45-1.45V295.537a1.452,1.452,0,0,1,1.45-1.45h57.653a1.452,1.452,0,0,1,1.45,1.45v69.081A1.452,1.452,0,0,1,591.421,366.068Z" transform="translate(-488.629 -266.767)" fill="#e4e6f2"/>
      <path id="Path_1674" data-name="Path 1674" d="M534.623,274.087H498.718a2.9,2.9,0,0,0-2.9,2.9v69.559l.341-.1V276.987a2.562,2.562,0,0,1,2.559-2.559h36.011Zm31.3,0h-67.2a2.9,2.9,0,0,0-2.9,2.9v78.121a2.9,2.9,0,0,0,2.9,2.9h67.2a2.9,2.9,0,0,0,2.9-2.9V276.987A2.9,2.9,0,0,0,565.923,274.087Zm2.559,81.021a2.562,2.562,0,0,1-2.559,2.559h-67.2a2.562,2.562,0,0,1-2.559-2.559V276.987a2.562,2.562,0,0,1,2.559-2.559h67.2a2.562,2.562,0,0,1,2.559,2.559Z" transform="translate(-458.355 -250.178)" fill="#3a3f5c" stroke="#3a3f5c" stroke-width="1"/>
      <path id="Path_1675" data-name="Path 1675" d="M641.738,266.662H610.353a1.537,1.537,0,0,1-1.535-1.535v-7.505a1.537,1.537,0,0,1,1.535-1.535h31.385a1.537,1.537,0,0,1,1.535,1.535v7.505A1.537,1.537,0,0,1,641.738,266.662Z" transform="translate(-552.08 -235.248)" fill="#25f"/>
      <circle id="Ellipse_293" data-name="Ellipse 293" cx="3.411" cy="3.411" r="3.411" transform="translate(70.554 14.528)" fill="#25f"/>
      <circle id="Ellipse_294" data-name="Ellipse 294" cx="2.078" cy="2.078" r="2.078" transform="translate(71.888 15.861)" fill="#fff"/>
    </g>
  </g>
</svg>
