<svg xmlns="http://www.w3.org/2000/svg" width="10.023" height="15.995" viewBox="0 0 10.023 15.995">
  <g id="dots-menu" transform="translate(0 -2.471)">
    <g id="Group_249" data-name="Group 249" transform="translate(0 2.471)">
      <path id="Path_1282" data-name="Path 1282" d="M2.755,2.471a1.9,1.9,0,1,0,1.9,1.9A1.907,1.907,0,0,0,2.755,2.471Z" transform="translate(-0.8 -2.471)" fill="#b7bbd8"/>
      <path id="Path_1283" data-name="Path 1283" d="M107.274,2.471a1.9,1.9,0,1,0,1.9,1.9A1.907,1.907,0,0,0,107.274,2.471Z" transform="translate(-99.155 -2.471)" fill="#b7bbd8"/>
      <path id="Path_1285" data-name="Path 1285" d="M1.9,109.758a1.9,1.9,0,1,0-1.9-1.9A1.907,1.907,0,0,0,1.9,109.758Z" transform="translate(0 -99.846)" fill="#b7bbd8"/>
      <path id="Path_1286" data-name="Path 1286" d="M106.43,109.758a1.9,1.9,0,1,0-1.9-1.9A1.907,1.907,0,0,0,106.43,109.758Z" transform="translate(-98.361 -99.846)" fill="#b7bbd8"/>
      <path id="Path_1288" data-name="Path 1288" d="M2.644,209.108a1.9,1.9,0,1,0,1.9,1.9A1.907,1.907,0,0,0,2.644,209.108Z" transform="translate(-0.695 -196.922)" fill="#b7bbd8"/>
      <path id="Path_1289" data-name="Path 1289" d="M107.169,209.108a1.9,1.9,0,1,0,1.9,1.9A1.907,1.907,0,0,0,107.169,209.108Z" transform="translate(-99.056 -196.922)" fill="#b7bbd8"/>
    </g>
  </g>
</svg>
