<svg xmlns="http://www.w3.org/2000/svg" width="19.919" height="21.909" viewBox="0 0 19.919 21.909">
  <g id="box_2_" data-name="box (2)" transform="translate(-2.04 -1.072)">
    <path id="Path_6" data-name="Path 6" d="M21,16V8a2,2,0,0,0-1-1.73l-7-4a2,2,0,0,0-2,0l-7,4A2,2,0,0,0,3,8v8a2,2,0,0,0,1,1.73l7,4a2,2,0,0,0,2,0l7-4A2,2,0,0,0,21,16Z" fill="none" stroke="#25f" stroke-linecap="round" stroke-linejoin="round" stroke-width="1.8"/>
    <path id="Path_7" data-name="Path 7" d="M3.27,6.96,12,12.01l8.73-5.05" fill="none" stroke="#25f" stroke-linecap="round" stroke-linejoin="round" stroke-width="1.8"/>
    <line id="Line_7" data-name="Line 7" y1="10.08" transform="translate(12 12)" fill="none" stroke="#25f" stroke-linecap="round" stroke-linejoin="round" stroke-width="1.8"/>
  </g>
</svg>
