<svg xmlns="http://www.w3.org/2000/svg" width="51.406" height="51.406" viewBox="0 0 51.406 51.406">
  <g id="Group_553" data-name="Group 553" transform="translate(1 1)">
    <g id="settings" transform="translate(0 0)">
      <g id="Group_552" data-name="Group 552" transform="translate(0 0)">
        <path id="Path_2011" data-name="Path 2011" d="M27.009,49.406H22.4a3.083,3.083,0,0,1-3.059-2.717l-.492-3.862a19.454,19.454,0,0,1-2.829-1.171l-3.076,2.39a3.071,3.071,0,0,1-4.086-.259L5.614,40.544a3.062,3.062,0,0,1-.251-4.074l2.39-3.078a19.006,19.006,0,0,1-1.171-2.829l-3.87-.492A3.09,3.09,0,0,1,0,27.009V22.4a3.083,3.083,0,0,1,2.717-3.059l3.862-.492a19.454,19.454,0,0,1,1.171-2.829L5.363,12.942a3.069,3.069,0,0,1,.261-4.088L8.866,5.612a3.065,3.065,0,0,1,4.074-.251l3.076,2.392a19.384,19.384,0,0,1,2.831-1.171l.492-3.87A3.083,3.083,0,0,1,22.4,0h4.611a3.083,3.083,0,0,1,3.059,2.717l.492,3.862A19.384,19.384,0,0,1,33.39,7.751l3.076-2.39a3.068,3.068,0,0,1,4.086.261l3.242,3.242a3.062,3.062,0,0,1,.251,4.074l-2.39,3.078a19.006,19.006,0,0,1,1.171,2.829l3.87.492A3.086,3.086,0,0,1,49.406,22.4v4.611a3.083,3.083,0,0,1-2.717,3.059l-3.862.492a19.453,19.453,0,0,1-1.171,2.829l2.39,3.076a3.066,3.066,0,0,1-.261,4.086l-3.242,3.242a3.06,3.06,0,0,1-4.074.251l-3.078-2.39a19.006,19.006,0,0,1-2.829,1.171L30.07,46.7a3.086,3.086,0,0,1-3.061,2.711Zm-11.1-10a1.044,1.044,0,0,1,.5.13,17.279,17.279,0,0,0,3.652,1.515,1.028,1.028,0,0,1,.737.858l.576,4.529a1.041,1.041,0,0,0,1.017.914h4.611a1.037,1.037,0,0,0,1.015-.9l.578-4.537a1.028,1.028,0,0,1,.737-.858,17.279,17.279,0,0,0,3.652-1.515,1.027,1.027,0,0,1,1.132.086l3.6,2.8a1.012,1.012,0,0,0,1.348-.07l3.263-3.263a1.018,1.018,0,0,0,.08-1.359l-2.8-3.6a1.028,1.028,0,0,1-.086-1.132,17.278,17.278,0,0,0,1.515-3.652A1.028,1.028,0,0,1,41.9,28.6l4.529-.576a1.044,1.044,0,0,0,.914-1.019V22.4a1.037,1.037,0,0,0-.9-1.015L41.907,20.8a1.028,1.028,0,0,1-.858-.737,17.278,17.278,0,0,0-1.515-3.652,1.024,1.024,0,0,1,.086-1.132l2.8-3.6a1.009,1.009,0,0,0-.068-1.346L39.089,7.071a1.013,1.013,0,0,0-1.359-.08l-3.6,2.8a1.031,1.031,0,0,1-1.134.086,17.207,17.207,0,0,0-3.652-1.515A1.028,1.028,0,0,1,28.6,7.5l-.576-4.529a1.044,1.044,0,0,0-1.019-.916H22.4a1.037,1.037,0,0,0-1.015.9L20.8,7.5a1.033,1.033,0,0,1-.737.86,17.2,17.2,0,0,0-3.652,1.513,1.031,1.031,0,0,1-1.134-.084l-3.6-2.8a1.009,1.009,0,0,0-1.346.068L7.069,10.322a1.018,1.018,0,0,0-.08,1.359l2.8,3.6a1.028,1.028,0,0,1,.086,1.132A17.171,17.171,0,0,0,8.36,20.067,1.028,1.028,0,0,1,7.5,20.8l-4.529.576A1.041,1.041,0,0,0,2.059,22.4v4.611a1.037,1.037,0,0,0,.9,1.015L7.5,28.6a1.028,1.028,0,0,1,.858.737,17.278,17.278,0,0,0,1.515,3.652,1.024,1.024,0,0,1-.086,1.132l-2.8,3.6a1.009,1.009,0,0,0,.068,1.346l3.263,3.263a1.018,1.018,0,0,0,1.359.08l3.6-2.8a1.06,1.06,0,0,1,.634-.214Z" transform="translate(0 0)" fill="#25f" stroke="#25f" stroke-width="2"/>
      </g>
    </g>
    <path id="Path_2012" data-name="Path 2012" d="M18.7,5.229A10.456,10.456,0,0,0,.137,6.1,1.494,1.494,0,0,0,1.327,8.208l5.327.6v3.3l-5.327.6A1.494,1.494,0,0,0,.137,14.819a10.456,10.456,0,0,0,18.561.869A10.978,10.978,0,0,0,18.7,5.229Zm-2.264,8.34A7.464,7.464,0,0,1,4.055,15.41l4.26-.478a1.494,1.494,0,0,0,1.327-1.485V7.47A1.494,1.494,0,0,0,8.315,5.986l-4.26-.478A7.464,7.464,0,0,1,16.434,7.348,8.431,8.431,0,0,1,16.434,13.569Z" transform="translate(35.162 15.179) rotate(90)" fill="#2dca73"/>
  </g>
</svg>
