<svg xmlns="http://www.w3.org/2000/svg" xmlns:xlink="http://www.w3.org/1999/xlink" width="850" height="365" viewBox="0 0 850 365">
  <defs>
    <clipPath id="clip-path">
      <rect id="Rectangle_920" data-name="Rectangle 920" width="804" height="291" rx="10" transform="translate(973 231)" fill="#fff"/>
    </clipPath>
  </defs>
  <g id="Group_753" data-name="Group 753" transform="translate(-1030 -128)">
    <g id="Group_752" data-name="Group 752">
      <rect id="Rectangle_919" data-name="Rectangle 919" width="850" height="291" rx="10" transform="translate(1030 202)" fill="#2c314d"/>
      <g id="Mask_Group_43" data-name="Mask Group 43" transform="translate(103 -29)" clip-path="url(#clip-path)">
        <path id="Path_2177" data-name="Path 2177" d="M1740-4765.161c-6.667-3.091-99.167-34.008-173.333-13.912s-90.5,39.032-123.333,94.295,26.833,90.43-8,126.757S1330-4561.886,1304-4539.471s-12,61.833-52.667,73.426-70.667-10.048-142.667-13.14-128,54.1-128,54.1L1490-4405.758l377.333,4.638,41.333-4.638-11.333-350.127Z" transform="translate(0 4950.945)" fill="#272b47"/>
      </g>
    </g>
    <g id="Group_751" data-name="Group 751">
      <g id="Group_645" data-name="Group 645" transform="translate(112)">
        <path id="Path_2056" data-name="Path 2056" d="M473.492,692.776c12.313,9.179,15.8,25.329,15.8,25.329s-16.474,1.268-28.787-7.911-15.8-25.329-15.8-25.329S461.179,683.6,473.492,692.776Z" transform="translate(1010.295 -225.621)" fill="#d9b436"/>
        <path id="Path_2057" data-name="Path 2057" d="M444.457,686.817c5.918,14.172,20.739,21.475,20.739,21.475s5.226-15.674-.691-29.847-20.739-21.475-20.739-21.475S438.539,672.645,444.457,686.817Z" transform="translate(1034.201 -215.353)" fill="#ffd136"/>
      </g>
      <g id="Group_644" data-name="Group 644" transform="translate(12990 -5393.968)">
        <path id="Path_932" data-name="Path 932" d="M350.427,659.338c0-24.594,19.95-82.952,44.559-82.952s44.561,58.354,44.561,82.952a44.56,44.56,0,1,1-89.12,0Z" transform="translate(-12222.781 5118.644)" fill="#6c63ff"/>
        <path id="Path_933" data-name="Path 933" d="M381.711,756.545a.366.366,0,0,1-.366-.366V602.655a.367.367,0,0,1,.733,0V756.179a.366.366,0,0,1-.366.366Z" transform="translate(-12209.507 5129.764)" fill="#e6e6e6"/>
        <path id="Path_934" data-name="Path 934" d="M387.009,628.795a.366.366,0,0,1-.259-.108l-17.637-17.624a.366.366,0,1,1,.519-.517h0l17.637,17.624a.366.366,0,0,1-.259.625Z" transform="translate(-12214.804 5133.263)" fill="#e6e6e6"/>
        <path id="Path_935" data-name="Path 935" d="M381.711,653.715a.366.366,0,0,1-.259-.625l29.537-29.516a.366.366,0,1,1,.519.517L381.97,653.608A.365.365,0,0,1,381.711,653.715Z" transform="translate(-12209.507 5138.857)" fill="#e6e6e6"/>
      </g>
      <g id="Group_642" data-name="Group 642" transform="translate(-27.041 -74)">
        <rect id="Rectangle_62" data-name="Rectangle 62" width="483.162" height="229.269" rx="7" transform="translate(1320.879 215.246)" fill="#e4e6f2"/>
        <rect id="Rectangle_75" data-name="Rectangle 75" width="455.531" height="191.286" transform="translate(1334.695 234.906)" fill="#fff"/>
        <path id="Rectangle_80" data-name="Rectangle 80" d="M20,0H463.162a20,20,0,0,1,20,20v.526a0,0,0,0,1,0,0H0a0,0,0,0,1,0,0V20A20,20,0,0,1,20,0Z" transform="translate(1320.673 202)" fill="#25f"/>
        <circle id="Ellipse_90" data-name="Ellipse 90" cx="3.804" cy="3.804" r="3.804" transform="translate(1332.122 210.265)" fill="#fff"/>
        <circle id="Ellipse_91" data-name="Ellipse 91" cx="3.804" cy="3.804" r="3.804" transform="translate(1346.563 210.265)" fill="#fff"/>
        <circle id="Ellipse_92" data-name="Ellipse 92" cx="3.804" cy="3.804" r="3.804" transform="translate(1361.003 210.265)" fill="#fff"/>
        <rect id="Rectangle_897" data-name="Rectangle 897" width="64.156" height="4.822" transform="translate(1597.185 263.989)" fill="#e6e6e6"/>
        <rect id="Rectangle_898" data-name="Rectangle 898" width="99.071" height="4.822" transform="translate(1597.185 278.145)" fill="#25f"/>
        <rect id="Rectangle_899" data-name="Rectangle 899" width="80.74" height="4.822" transform="translate(1598.215 291.627)" fill="#e6e6e6"/>
        <rect id="Rectangle_900" data-name="Rectangle 900" width="47.135" height="4.822" transform="translate(1597.185 306.419)" fill="#e6e6e6"/>
        <rect id="Rectangle_901" data-name="Rectangle 901" width="71.139" height="4.822" transform="translate(1597.185 320.868)" fill="#25f"/>
        <rect id="Rectangle_902" data-name="Rectangle 902" width="7.856" height="7.856" transform="translate(1567.945 262.473)" fill="#e6e6e6"/>
        <rect id="Rectangle_903" data-name="Rectangle 903" width="7.856" height="7.856" transform="translate(1567.945 276.628)" fill="#25f"/>
        <rect id="Rectangle_904" data-name="Rectangle 904" width="7.856" height="7.856" transform="translate(1567.945 290.11)" fill="#e6e6e6"/>
        <rect id="Rectangle_905" data-name="Rectangle 905" width="7.856" height="7.856" transform="translate(1567.945 304.903)" fill="#e6e6e6"/>
        <rect id="Rectangle_906" data-name="Rectangle 906" width="7.856" height="7.856" transform="translate(1567.945 319.352)" fill="#25f"/>
        <rect id="Rectangle_907" data-name="Rectangle 907" width="64.156" height="4.822" transform="translate(1597.185 335.408)" fill="#e6e6e6"/>
        <rect id="Rectangle_908" data-name="Rectangle 908" width="99.071" height="4.822" transform="translate(1597.185 349.564)" fill="#25f"/>
        <rect id="Rectangle_909" data-name="Rectangle 909" width="80.74" height="4.822" transform="translate(1598.215 363.046)" fill="#e6e6e6"/>
        <rect id="Rectangle_910" data-name="Rectangle 910" width="47.135" height="4.822" transform="translate(1597.185 377.839)" fill="#e6e6e6"/>
        <rect id="Rectangle_911" data-name="Rectangle 911" width="71.139" height="4.822" transform="translate(1597.185 392.288)" fill="#e6e6e6"/>
        <rect id="Rectangle_912" data-name="Rectangle 912" width="7.856" height="7.856" transform="translate(1567.945 333.892)" fill="#e6e6e6"/>
        <rect id="Rectangle_913" data-name="Rectangle 913" width="7.856" height="7.856" transform="translate(1567.945 348.048)" fill="#25f"/>
        <rect id="Rectangle_914" data-name="Rectangle 914" width="7.856" height="7.856" transform="translate(1567.945 361.529)" fill="#e6e6e6"/>
        <rect id="Rectangle_915" data-name="Rectangle 915" width="7.856" height="7.856" transform="translate(1567.945 376.322)" fill="#e6e6e6"/>
        <rect id="Rectangle_916" data-name="Rectangle 916" width="7.856" height="7.856" transform="translate(1567.945 390.771)" fill="#e6e6e6"/>
        <rect id="Rectangle_917" data-name="Rectangle 917" width="64.156" height="4.822" transform="translate(1394.23 373.233)" fill="#3a3f5c"/>
        <rect id="Rectangle_918" data-name="Rectangle 918" width="80.74" height="4.822" transform="translate(1385.645 385.763)" fill="#3a3f5c"/>
        <path id="Path_2039" data-name="Path 2039" d="M386.66,301.686a41.906,41.906,0,0,1-61.753,36.892l-.008-.008a41.893,41.893,0,1,1,61.761-36.884Z" transform="translate(1081.346 10.719)" fill="#3a3f5c"/>
        <circle id="Ellipse_338" data-name="Ellipse 338" cx="11.388" cy="11.388" r="11.388" transform="translate(1414.942 287.596)" fill="#fff"/>
        <path id="Path_2040" data-name="Path 2040" d="M374.575,344.388a58.694,58.694,0,0,1-39.308-.152l-.008-.006,8.484-16.747h22.775Z" transform="translate(1071.198 -10.488)" fill="#fff"/>
      </g>
      <g id="Group_643" data-name="Group 643" transform="translate(0 -0.639)">
        <path id="Path_2175" data-name="Path 2175" d="M-11743.5,5976.107a12.947,12.947,0,0,1,1.344,9.818c-1.558,5.292,12.042-4.643,12.042-4.643s-1.326-7.918-2.3-10.094S-11743.5,5976.107-11743.5,5976.107Z" transform="translate(13452.367 -5698.948)" fill="#f0a0a0"/>
        <path id="Path_2041" data-name="Path 2041" d="M648.5,547.593h-7.126l-3.391-27.487H648.5Z" transform="translate(1075.817 -60.921)" fill="#ffb7b7"/>
        <path id="Path_2042" data-name="Path 2042" d="M852.986,732.654H830.008v-.291a8.944,8.944,0,0,1,8.943-8.943h14.035Z" transform="translate(873.145 -239.074)" fill="#b07473"/>
        <path id="Path_2043" data-name="Path 2043" d="M686.015,547.593h7.126l3.39-27.487H686.014Z" transform="translate(1055.703 -60.921)" fill="#ffb7b7"/>
        <path id="Path_2044" data-name="Path 2044" d="M893.229,723.419h14.034a8.944,8.944,0,0,1,8.944,8.943v.291H893.229Z" transform="translate(846.671 -239.074)" fill="#b07473"/>
        <circle id="Ellipse_339" data-name="Ellipse 339" cx="12.455" cy="12.455" r="12.455" transform="translate(1694.877 271.945) rotate(-63.58)" fill="#ffb7b7"/>
        <path id="Path_2045" data-name="Path 2045" d="M826.906,494.814s-3.933,16.389-1.967,24.255,7.867,61.621,7.867,61.621l3.933,42.61,15.733,1.311-1.967-49.821,1.967-43.266,11.144,41.955v49.97l16.686.656.358-65.047s1.311-51.132-7.211-57.688-9.833-7.867-9.833-7.867Z" transform="translate(875.497 -142.799)" fill="#454565"/>
        <path id="Path_2046" data-name="Path 2046" d="M850.581,371.7l14.926,7.867,1.967,68.177s-8.522-5.244-21.633,1.311-21.633,1.967-21.633,1.967l7.867-29.5L828.8,382.19l4.688-4.255Z" transform="translate(875.573 -91.796)" fill="#b7bbd8"/>
        <path id="Path_2047" data-name="Path 2047" d="M825.458,380.277l-2.723,2.218s-17.044,8.522-17.7,14.422l11.8,32.122s3.278,7.211.656,9.833-5.244,9.178-4.589,12.455-3.933,17.044,1.311,17.044,17.7-31.466,17.044-43.921S830.148,379.37,825.458,380.277Z" transform="translate(883.602 -95.38)" fill="#67647e"/>
        <path id="Path_2048" data-name="Path 2048" d="M859.726,372.252l6-1s22.289,5.9,25.566,15.733l-9.178,22.944s6.555,41.955,4.589,41.955h-1.967s5.244,3.933,1.967,5.244-11.144,11.8-13.111,7.211-13.766-59-12.455-70.8S858.561,373.488,859.726,372.252Z" transform="translate(860.793 -91.609)" fill="#67647e"/>
        <path id="Path_2049" data-name="Path 2049" d="M846.841,322.551l.583-1.174-2.935-1.458s-3.238-5.269-9.1-3.788-8.5,2.367-8.5,2.367l-2.928,1.473,1.47,1.462-2.636.886,1.761.875-2.049,1.178,1.1,6.038s1.832-4.58,5.355-2.83,9.966-.9,9.966-.9l5.6,10.833s1.155-3.8,3.214-2.785C847.747,334.724,853.007,326.347,846.841,322.551Z" transform="translate(876.283 -68.417)" fill="#2f2e41"/>
        <path id="Path_2050" data-name="Path 2050" d="M895.422,504.7a5.845,5.845,0,0,1,4.178-7.929l2.523-20.617,8.222,6.993-3.657,18.507a5.877,5.877,0,0,1-11.267,3.047Z" transform="translate(845.936 -135.534)" fill="#ffb7b7"/>
        <path id="Path_2051" data-name="Path 2051" d="M822.9,502.887a5.845,5.845,0,0,0-5-7.442l-4.7-20.234-7.434,7.825,5.6,18.014a5.877,5.877,0,0,0,11.526,1.836Z" transform="translate(883.293 -135.14)" fill="#ffb7b7"/>
        <path id="Path_2052" data-name="Path 2052" d="M895.337,388.752s8.522-3.278,11.144,6.555,5.9,29.5,5.9,29.5c.163,10.936-.418,10.936,0,21.633l-1.967,9.833-11.144-1.311.486-25.032-5.73-25.445Z" transform="translate(846.338 -98.716)" fill="#67647e"/>
        <path id="Path_2053" data-name="Path 2053" d="M809.036,402.152l-4.041.432s-3.826,2.846-3.826,9.4-.656,26.222-.656,26.222-.372.46,2.622,17.044c1.459,8.083,3.981,11.9,3.981,11.9l8.138-7.556-.974-19.419,2.622-10.489Z" transform="translate(885.501 -104.547)" fill="#67647e"/>
      </g>
    </g>
  </g>
</svg>
