<svg xmlns="http://www.w3.org/2000/svg" width="48.457" height="48.541" viewBox="0 0 48.457 48.541">
  <g id="followers" transform="translate(0)">
    <g id="Group_549" data-name="Group 549" transform="translate(0)">
      <g id="Group_548" data-name="Group 548">
        <path id="Path_2003" data-name="Path 2003" d="M22.589,44.666H6.124a1.894,1.894,0,0,1-1.8-2.473,14.6,14.6,0,0,1,13.873-9.878,14.156,14.156,0,0,1,8.138,2.552,1.893,1.893,0,1,0,2.165-3.1,17.985,17.985,0,0,0-3.775-2.015,9.635,9.635,0,0,0,3.134-6.357,14.248,14.248,0,0,1,18.064-1.476,1.893,1.893,0,1,0,2.165-3.1,17.985,17.985,0,0,0-3.775-2.015,9.652,9.652,0,1,0-13-.021q-.4.152-.786.324a17.969,17.969,0,0,0-3.334,1.913,9.651,9.651,0,1,0-15.486,10.7A18.2,18.2,0,0,0,.718,41.034a5.679,5.679,0,0,0,5.406,7.418H22.589a1.893,1.893,0,0,0,0-3.785ZM37.825,3.785a5.867,5.867,0,1,1-5.867,5.867A5.874,5.874,0,0,1,37.825,3.785ZM18.236,16.738a5.867,5.867,0,1,1-5.867,5.867A5.874,5.874,0,0,1,18.236,16.738Z" transform="translate(-0.44)" fill="#25f"/>
        <path id="Path_2004" data-name="Path 2004" d="M286.122,322.7a1.893,1.893,0,0,0-2.641.437l-9.329,13.031a1.081,1.081,0,0,1-1.556.081l-4.336-4.1a1.893,1.893,0,0,0-2.622,2.73l4.342,4.1a4.88,4.88,0,0,0,3.357,1.341q.16,0,.321-.011a4.879,4.879,0,0,0,3.47-1.807c.022-.027.043-.055.064-.084l9.367-13.084A1.893,1.893,0,0,0,286.122,322.7Z" transform="translate(-238.456 -291.789)" fill="#2dca73"/>
      </g>
    </g>
  </g>
</svg>
