<svg xmlns="http://www.w3.org/2000/svg" width="21.796" height="21.796" viewBox="0 0 21.796 21.796">
  <g id="settings_3_" data-name="settings (3)" transform="translate(-0.1 -0.1)">
    <circle id="Ellipse_3" data-name="Ellipse 3" cx="3" cy="3" r="3" transform="translate(7.981 8.016)" fill="none" stroke="#b7bbd8" stroke-linecap="round" stroke-linejoin="round" stroke-width="1.8"/>
    <path id="Path_8" data-name="Path 8" d="M17.724,13.725a1.5,1.5,0,0,0,.3,1.654l.055.055a1.819,1.819,0,1,1-2.572,2.572l-.055-.055a1.512,1.512,0,0,0-2.563,1.073v.155a1.818,1.818,0,1,1-3.636,0V19.1a1.5,1.5,0,0,0-.982-1.372,1.5,1.5,0,0,0-1.654.3l-.055.055A1.819,1.819,0,1,1,3.99,15.506l.055-.055a1.512,1.512,0,0,0-1.073-2.563H2.818a1.818,1.818,0,1,1,0-3.636H2.9a1.5,1.5,0,0,0,1.372-.982,1.5,1.5,0,0,0-.3-1.654l-.055-.055A1.819,1.819,0,1,1,6.49,3.99l.055.055a1.5,1.5,0,0,0,1.654.3h.073A1.5,1.5,0,0,0,9.18,2.972V2.818a1.818,1.818,0,0,1,3.636,0V2.9a1.512,1.512,0,0,0,2.563,1.073l.055-.055A1.819,1.819,0,1,1,18.006,6.49l-.055.055a1.5,1.5,0,0,0-.3,1.654v.073a1.5,1.5,0,0,0,1.372.909h.155a1.818,1.818,0,1,1,0,3.636H19.1A1.5,1.5,0,0,0,17.724,13.725Z" fill="none" stroke="#b7bbd8" stroke-linecap="round" stroke-linejoin="round" stroke-width="1.8"/>
  </g>
</svg>
