<svg id="search" xmlns="http://www.w3.org/2000/svg" width="20.005" height="20.005" viewBox="0 0 20.005 20.005">
  <path id="Path_1897" data-name="Path 1897" d="M4.434,144.955l-.7,2.6-2.545.054a10.02,10.02,0,0,1-.074-9.34h0l2.266.415.993,2.252a5.969,5.969,0,0,0,.056,4.019Z" transform="translate(0 -132.866)" fill="#fbbb00"/>
  <path id="Path_1898" data-name="Path 1898" d="M271.236,208.176a10,10,0,0,1-3.566,9.669h0l-2.854-.146-.4-2.522a5.961,5.961,0,0,0,2.565-3.044h-5.349v-3.957h9.608Z" transform="translate(-251.406 -200.042)" fill="#518ef8"/>
  <path id="Path_1899" data-name="Path 1899" d="M45.581,315.122h0a10.006,10.006,0,0,1-15.072-3.06l3.241-2.653a5.949,5.949,0,0,0,8.572,3.046Z" transform="translate(-29.317 -297.32)" fill="#28b446"/>
  <path id="Path_1900" data-name="Path 1900" d="M43.893,2.3l-3.24,2.653A5.948,5.948,0,0,0,31.883,8.07L28.625,5.4h0A10,10,0,0,1,43.893,2.3Z" transform="translate(-27.506)" fill="#f14336"/>
</svg>
