<svg xmlns="http://www.w3.org/2000/svg" xmlns:xlink="http://www.w3.org/1999/xlink" width="1106" height="1080" viewBox="0 0 1106 1080">
  <defs>
    <clipPath id="clip-path">
      <rect id="Rectangle_548" data-name="Rectangle 548" width="1106" height="1080" fill="#fff"/>
    </clipPath>
  </defs>
  <g id="Mask_Group_21" data-name="Mask Group 21" clip-path="url(#clip-path)">
    <g id="Group_323" data-name="Group 323">
      <path id="Path_1697" data-name="Path 1697" d="M-18459-24241s-393.453,60.043-406.316,155.34,297.719,123.738,356.527,285.152,73.512,287-121.293,360.5-657.918-66.484-657.918-66.484l189.289-684.07S-18835.7-24278-18821-24278-18459-24241-18459-24241Z" transform="translate(19052 24156)" fill="#2c314d"/>
      <path id="Path_1698" data-name="Path 1698" d="M-19065.334-23025.334c60.666-44.2,24.867-35.666,180-22.666s205.635-203.367,373.334-206.4,238.334,137.8,364,107.734,138.666-103.566,138.666-228-157.732-153.6-138.666-269.734,211.467-276.9,275.6-116.133-36.4,852.8-36.4,852.8l-1197.732-39.865S-19126-22981.133-19065.334-23025.334Z" transform="translate(19052 24156)" fill="#2c314d"/>
      <path id="Path_1700" data-name="Path 1700" d="M-18554.873-24077.3c-18.631,0-40.107,23.211-37.895,43.582s28.107,37.895,46.738,37.895,30-17.527,27.789-37.895S-18536.242-24077.3-18554.873-24077.3Z" transform="translate(27342.965 14029.098) rotate(-25)" fill="#2c314d"/>
      <path id="Path_1702" data-name="Path 1702" d="M-18567-24077.3c-12.691,0-27.32,15.811-25.814,29.688s19.146,25.813,31.838,25.813,20.436-11.937,18.93-25.812S-18554.312-24077.3-18567-24077.3Z" transform="translate(18677.871 24891.1)" fill="#2c314d"/>
      <path id="Path_1704" data-name="Path 1704" d="M-18569.947-24077.3c-11.25,0-24.219,14.016-22.885,26.318s16.975,22.883,28.225,22.883,18.117-10.582,16.781-22.883S-18558.7-24077.3-18569.947-24077.3Z" transform="translate(19321.223 24290.1)" fill="#2c314d"/>
      <path id="Path_1701" data-name="Path 1701" d="M-18188.021-23291.537c-2.129,20.646-32.777,41.719-57.893,41.719s-44.7-21.072-42.57-41.719,25.967-40.867,51.084-40.867S-18185.893-23312.184-18188.021-23291.537Z" transform="matrix(-0.087, -0.996, 0.996, -0.087, 22572.91, -19429.43)" fill="#2c314d"/>
      <path id="Path_1703" data-name="Path 1703" d="M-18202.623-23297.465c-1.818,17.648-28.021,35.664-49.492,35.664s-38.213-18.016-36.393-35.664,22.2-34.937,43.672-34.937S-18200.8-23315.117-18202.623-23297.465Z" transform="translate(29615.451 -2701.922) rotate(-59)" fill="#2c314d"/>
    </g>
    <path id="Path_1707" data-name="Path 1707" d="M-18572.412-24077.3c-10.045,0-21.621,12.512-20.43,23.494s15.154,20.428,25.2,20.428,16.172-9.449,14.98-20.428S-18562.367-24077.3-18572.412-24077.3Z" transform="translate(-16574.629 25963.504) rotate(71)" fill="#272b47"/>
    <path id="Path_1706" data-name="Path 1706" d="M-18188.609-23291.773c-2.117,20.523-32.586,41.473-57.555,41.473s-44.437-20.949-42.32-41.473,25.814-40.629,50.783-40.629S-18186.494-23312.3-18188.609-23291.773Z" transform="translate(18605.186 23911.15)" fill="#272b47"/>
    <path id="Path_1705" data-name="Path 1705" d="M-18229.309-23308.3c-1.254,12.176-19.328,24.6-34.137,24.6s-26.359-12.426-25.1-24.6,15.313-24.1,30.123-24.1S-18228.053-23320.479-18229.309-23308.3Z" transform="translate(19279.209 23760.252)" fill="#272b47"/>
  </g>
</svg>
